<svg id="abfb3c76-d86e-4b47-ae53-7139792df7de" data-name="&lt;Layer&gt;" xmlns="http://www.w3.org/2000/svg" viewBox="0 0 1039.4 1122.3">
  <g>
    <path d="M497.7,247.7c4.4-84-3.3-126.9-62.7-147.7S318.7,64.3,293.7,66.3s-33.8,18.3-27.5,24.1,2.8-2.9,20.2,1.9,85.4,23.2,84.9,27.5-23.1-.9-46.8-6.2-62.2-2.5-98.9-4.4-68-5.3-101.8,31.9S67.9,231.3,64,247.7s-5.3,55.9,4.8,50.1,60.8-31.3,118.2-36.6,111.5-11.1,139.9-5.8,43.5,11.1,37.7,16.4-138,4.8-197.8,29.9S41.3,374.1,40.9,419.9s16.4,97.9,43.9,93.6,90.2-51.6,122.5-65.1,98.4-46.3,119.6-53.1,56-13,54.1-.5S278.7,438.2,234.8,471,132,569.9,116.6,591.2s-34.7,30.4-17.9,75.7,59.4,84,59.4,84-10.1-14.5,11.1-56.5,63.7-108.5,77.2-122,31.8-28.5,31.8-18.9-56.4,54.6-73.8,132.7-10.6,136.1-4.3,114.3,4.3-76.7,24.6-111.4,60.3-65.6,80-74.8,53.1-27.5,35.7-10.6S242,688.1,213.6,741.2s-47.8,120.1-43,138.5,24.6,55.9,35.2,66.5S253.6,981,253.6,981s-38.1-17.9,5.3-113.4,78.2-125.4,86.9-133.2S379,705,380.5,719.5s-21.7,70.9-39.1,107.6S293.7,892.7,284,941.9s-2.9,55.5,3.4,61.7,55,25.6,67,43,27.1,32.3,53.1,28,86.9-9.2,89.3-15,2.9-96.5-4.4-135.6-18.8-90.7,2-97.4,48.2,32.3,58.3,67,15.5,82.1,4.4,119.2-48.3,51.2-48.3,51.2,44.9.9,82.5-19.8,40.1-24.2,40.1-24.2,26.5-67,13-134.1-44.9-134.6-68-165.9-57.4-73.8-37.2-84,62.7,50.2,68,69.5,24.2,87.3,35.7,117.7,26.6,77.7,31.9,112.4,6.3,69,0,80.1-27,27.5-27,27.5,89.7-56.4,122-90.7,36.7-27,36.2-68.5,2.1-83.5-29.3-135.1S675.8,590.7,640,555.9s-75.2-69.5-44.8-76.5,57.4-4.5,173.7,102.6,165,159.2,165,159.2,33.7-42.5,39.5-94.6,18.4-80-11.1-110.9-94.5-84.9-197.3-125-159.2-55-126.4-61.7,114.3-2,198.3,51.6,83.9,57.4,106.6,73.3,44.4,60.3,44.4,60.3,22.2-66.5,2.4-149-30.9-103.3-94.6-121.6S777.5,253,732.2,253s-80.6-4.9-70.4-15.5,82.2-29.4,150.5-35.7c92.5-8.5,155.3,45.4,155.3,45.4s-1.4-88.8-47.7-122.1-103.3-40.3-152-59-136.1-31.5-182.4,0-61.7,64.3-64.8,94.7.7,88.8-9.9,89.3S497.7,247.7,497.7,247.7Z" fill="#6c9168"/>
    <path d="M519.7,293.7l18.1-.2c5.8-.1,12.8,0,20.8.1,4,.1,8.3,0,12.8.2l14.2.6c4.9.1,10.1.4,15.4.8l8.1.5,8.3.6,17.4,1.4,18.1,2c12.3,1.5,24.9,3.2,37.8,5.3s25.7,4.5,38.6,7.1l19.3,4.4c6.4,1.6,12.7,3.1,19,4.8s12.5,3.3,18.6,5.2l9.1,2.7,8.9,2.8,17.3,5.8c5.5,2.1,11,4,16.3,6.1,10.6,4,20.5,8.2,29.5,12.2s17.3,8,24.4,11.6,13.3,7.1,18.3,10c10,5.8,15.4,9.6,15.4,9.6s-5.3-3.9-15.3-9.8c-5-2.9-11.1-6.4-18.2-10.1s-15.3-7.8-24.3-11.9-18.8-8.4-29.4-12.6l-16.3-6.2c-5.7-2-11.4-4.1-17.3-6l-8.9-2.9-9.1-2.8c-6-2-12.3-3.6-18.5-5.4s-12.7-3.4-19-5.1-12.8-3.1-19.3-4.5c-12.9-2.8-25.9-5.4-38.7-7.6s-25.5-4.1-37.8-5.7l-18.2-2.1-17.4-1.7-8.4-.7-8.1-.5c-5.3-.4-10.5-.8-15.4-1l-14.3-.7-12.8-.3c-8.1-.2-15.1-.4-20.9-.4H519.7c-.2-10.6-2.4-23.9-4.1-32.5l13.9-8.5c4.8-3,10.7-6.2,17.5-10.1l5.2-3c1.8-1,3.8-1.9,5.7-3l12.2-6.4c4.2-2.2,8.8-4.3,13.4-6.6l7.1-3.5,7.4-3.4c10-4.6,20.7-9.1,31.8-13.6l17.1-6.4,17.7-6.2c6.1-1.9,12.1-3.9,18.2-5.7l9.2-2.6,4.6-1.4,4.7-1.2c6.2-1.6,12.4-3.2,18.6-4.6l9.3-2.2,9.3-1.9c12.4-2.5,24.6-4.5,36.5-6.2,6-.7,11.8-1.6,17.6-2.1l8.5-.9,8.4-.7,8.1-.5,7.9-.5,15-.5c9.6-.2,18.4,0,26.2.2s14.6.8,20.2,1.2c11.2,1,17.5,2.1,17.5,2.1s-6.3-1.1-17.5-2.2c-5.6-.5-12.4-1-20.2-1.3s-16.6-.6-26.2-.4c-4.8,0-9.8.2-15,.4l-7.9.4c-2.7.1-5.4.2-8.2.5l-8.3.6-8.6.8c-5.8.5-11.6,1.3-17.6,2-11.9,1.6-24.2,3.5-36.6,6l-9.4,1.8-9.3,2.1c-6.3,1.3-12.5,3-18.7,4.5l-4.7,1.2-4.6,1.3-9.2,2.6-18.3,5.6c-6,1.9-11.9,4-17.8,6l-17.2,6.4c-11.2,4.4-22,8.8-32,13.4l-7.5,3.3-7.1,3.5c-4.7,2.2-9.3,4.3-13.5,6.5L556.7,230l-5.7,3-5.3,2.9c-6.8,3.9-12.9,7.1-17.6,10.1L515,253.8l-1.3-5.8-16-.3v1.1l-4.2-4.7c-5.2-6-12.5-14.6-21.1-25.1s-18.5-23-29.2-36.2-22.2-27.2-35-40.2a216.9,216.9,0,0,0-20-18.4,159.2,159.2,0,0,0-21.6-14.8,142.8,142.8,0,0,0-22.3-10.3,183.2,183.2,0,0,0-21.1-6.3,190.7,190.7,0,0,0-32.5-4.4c-8-.3-12.5,0-12.5,0a119.4,119.4,0,0,1,12.5.1,186,186,0,0,1,32.4,4.8,189.4,189.4,0,0,1,21,6.4,152.3,152.3,0,0,1,43.4,25.5,227.1,227.1,0,0,1,19.7,18.4c12.5,13,23.9,27.1,34.5,40.4s20.2,25.9,28.8,36.5,15.8,19.4,20.9,25.4l6,7c-.2,4.4-.5,8.8-.8,13.2l-16.2-6.6-20.9-8.4-27.2-10.7-15.6-5.9c-5.4-2-11-4.2-16.8-6.2-11.5-4.3-23.7-8.6-36.4-12.8-6.3-2.1-12.8-4.3-19.4-6.3l-9.9-3.1-10.1-2.9c-6.7-2-13.6-3.6-20.5-5.4l-10.5-2.4-5.2-1.2-5.2-1c-3.6-.6-7.1-1.4-10.6-1.9l-10.6-1.6-10.6-1.1-2.6-.3-2.7-.2-5.3-.3a267.4,267.4,0,0,0-41.2,1.3,221.2,221.2,0,0,0-37.9,7.5,177.5,177.5,0,0,0-32.1,12.8,150.5,150.5,0,0,0-24.5,15.9,130.7,130.7,0,0,0-16.3,15.5,90.4,90.4,0,0,0-8.7,11.6c-1.8,2.8-2.6,4.4-2.6,4.4s.8-1.6,2.6-4.4a105.1,105.1,0,0,1,8.9-11.5,125.5,125.5,0,0,1,16.4-15.3A150.2,150.2,0,0,1,129.4,210a177.4,177.4,0,0,1,32.1-12.5,219.1,219.1,0,0,1,37.7-7,253.8,253.8,0,0,1,41-.9l5.3.3,2.6.2,2.6.3,10.6,1.3,10.5,1.7c3.5.5,6.9,1.3,10.4,2l5.3,1,5.2,1.2,10.3,2.5c6.8,1.9,13.7,3.6,20.4,5.6l10,3,9.9,3.1,19.3,6.5c12.6,4.3,24.7,8.8,36.2,13.1l16.6,6.4c5.4,2.1,10.6,4,15.5,6.1,10,3.9,19.1,7.5,27.1,10.9l20.8,8.5,17.6,7.3c-1.1,16.7-2.3,33.5-3.7,50.4v-.2h-20c-6.4,0-14.2-.1-23.1.3l-14.2.4-15.7.6-17,1c-3,.2-6,.3-9,.6l-9.3.8-19.2,1.7-20,2.3c-6.9.7-13.7,1.9-20.7,2.9L314,333l-10.6,1.9c-7.1,1.3-14.2,2.5-21.3,4.2s-14.3,3-21.3,4.9-14.2,3.5-21.2,5.7l-10.4,3.1c-3.5,1-6.9,2.3-10.3,3.4l-10.1,3.5-9.9,3.8-5,1.9-4.8,2.1-9.5,4.1A345.9,345.9,0,0,0,144.7,390l-4,2.4-3.8,2.6-7.5,5c-4.7,3.5-9.4,6.9-13.5,10.4A180.2,180.2,0,0,0,94.3,431a138,138,0,0,0-14,18.3,85.8,85.8,0,0,0-7.1,13c-1.4,3.1-2,4.8-2,4.8s.6-1.7,2-4.8a96.4,96.4,0,0,1,7.3-12.9,143,143,0,0,1,14.2-18,180.4,180.4,0,0,1,21.7-20.3c4.2-3.5,8.9-6.7,13.7-10.2l7.5-4.9,3.8-2.5,4-2.3a327.1,327.1,0,0,1,35-17.9l9.5-4,4.8-2,4.9-1.8,9.9-3.7,10.2-3.4c3.4-1.1,6.8-2.3,10.2-3.2l10.5-3c6.9-2.1,14-3.7,21.1-5.4s14.2-3.1,21.2-4.6,14.2-2.7,21.3-3.9l10.5-1.8,10.5-1.4c7-.9,13.8-2,20.6-2.6l20-2.1,19.2-1.4,9.2-.7,8.9-.4,17-.8c5.5-.3,10.7-.3,15.7-.4l14.1-.3c8.8-.2,16.6,0,22.9,0l19.6.2c-2.8,33.9-6.1,67.4-9.6,98.5l-12.8,2.8c-6.2,1.2-13.8,3.3-22.4,5.5l-6.7,1.8-3.4.9-3.6,1.1-15,4.7c-5.3,1.5-10.6,3.6-16.1,5.5s-11.4,3.9-17.2,6.4-11.8,4.7-17.8,7.4l-18.3,8.4-18.6,9.5-18.6,10.6-18.3,11.5-9,6.2c-3,2.1-6.1,4.1-9,6.4l-8.7,6.5-4.3,3.4-4.3,3.4-8.4,6.9-8.1,7.2c-5.4,4.6-10.5,9.7-15.6,14.5l-1.9,1.9-1.8,1.8c-1.2,1.3-2.4,2.6-3.7,3.8s-4.8,4.9-7.1,7.5c-4.5,5.1-9.1,10-13.3,15.1l-6.2,7.5-5.8,7.5c-7.6,10-14.4,19.7-20.2,29-3,4.6-5.6,9.1-8.2,13.4s-4.8,8.4-6.9,12.3c-4.2,7.9-7.4,14.9-10,20.7s-4.4,10.5-5.6,13.7-1.7,4.9-1.7,4.9.5-1.7,1.7-4.9,3.1-7.8,5.7-13.6,6-12.8,10.3-20.6c2.1-3.9,4.5-7.9,6.9-12.3s5.3-8.7,8.3-13.2c5.9-9.2,12.8-18.8,20.5-28.7l5.9-7.5c2-2.5,4.1-4.9,6.2-7.4,4.2-5.1,8.8-9.9,13.4-15,2.3-2.5,4.8-4.9,7.2-7.4l3.7-3.7,1.8-1.8,1.9-1.8c5.1-4.8,10.2-9.8,15.7-14.4l8.1-7.1,8.5-6.7,4.2-3.4c1.4-1.2,2.9-2.2,4.3-3.3l8.8-6.5c2.9-2.2,6-4.1,9-6.2l9-6.1,18.3-11.3L332,481.6l18.5-9.3,18.3-8.2c6.1-2.6,12.1-4.8,17.8-7.2s11.6-4.2,17.1-6.2,10.9-3.9,16.1-5.3l15-4.5,3.5-1.1,3.5-.9,6.6-1.6c8.6-2.2,16-4.2,22.3-5.4l11.4-2.3c-2.9,25.4-6,49-9,69.9-.2,1.5-.4,3.2-.7,4.9l-8.2,2.7c-3.9,1.3-8.6,2.9-13.9,4.9s-11.5,4.2-18,6.8-13.6,5.5-21,8.7-15.1,6.8-23,10.7c-15.8,7.7-32.3,16.7-48.2,26.5a524.2,524.2,0,0,0-45.5,30.9,476.3,476.3,0,0,0-36.8,30.8,290.8,290.8,0,0,0-23.6,24.4,80.5,80.5,0,0,0-5.9,7.4c-1.3,1.8-1.8,2.8-1.7,2.9s.4-1.1,1.7-2.9a91.3,91.3,0,0,1,6-7.3,297,297,0,0,1,24-24c10.4-9.4,23-19.8,37.1-30.2a541.8,541.8,0,0,1,45.8-30.2c16-9.5,32.6-18.2,48.4-25.6,7.9-3.8,15.7-7.2,23.1-10.3s14.4-5.9,20.9-8.4,12.6-4.6,18-6.5l13.9-4.6,6.3-2c-2.6,19.7-5.6,46.1-8.9,75.4l-11.8,6.3c-5.4,2.7-11.6,6.6-18.9,10.9s-15.2,9.5-23.9,15.2l-3.2,2.1-3.3,2.4-6.7,4.8c-4.5,3.3-9.2,6.6-13.8,10.4l-7.1,5.6c-2.3,1.9-4.8,3.7-7.1,5.8-4.7,4.1-9.6,8.3-14.4,12.6l-14.3,13.6c-4.6,4.8-9.3,9.6-13.9,14.6l-6.8,7.6-3.4,3.9-1.7,1.9-1.6,2-6.5,8.1-3.2,4-3.1,4.2-6.2,8.3-1.5,2.1-1.4,2.1-2.9,4.3c-1.9,2.9-3.9,5.7-5.8,8.5l-5.3,8.7-2.7,4.4-2.5,4.4-5,8.7-4.5,8.8c-1.5,2.9-3.1,5.8-4.4,8.7l-4.1,8.7c-1.4,2.9-2.5,5.8-3.8,8.7-2.5,5.7-4.6,11.4-6.8,16.9-4,11.1-7.6,21.8-10.3,31.8-.4,1.2-.7,2.4-1,3.7s-.7,2.4-1,3.6-1.2,4.7-1.7,7c-1,4.6-2.1,9-2.8,13.1-1.7,8.2-2.8,15.5-3.5,21.5s-1.2,10.7-1.4,13.9l-.3,4.9.3-4.9c.3-3.2.6-7.9,1.5-13.9s1.9-13.2,3.6-21.4c.8-4.2,1.9-8.5,2.9-13.1l1.8-7c.3-1.2.6-2.4,1-3.6s.7-2.5,1-3.7c2.8-10,6.4-20.6,10.5-31.7,2.3-5.4,4.4-11.1,7-16.8,1.2-2.8,2.4-5.7,3.8-8.6s2.7-5.7,4.1-8.7,2.9-5.8,4.4-8.7,3.1-5.8,4.7-8.7,3.3-5.8,5-8.7l2.5-4.4,2.7-4.2,5.4-8.7,5.8-8.5,2.9-4.2,1.4-2.1,1.6-2.1,6.1-8.3,3.1-4.1,3.3-4,6.5-7.9,1.7-2,1.7-1.9,3.4-3.9c2.2-2.5,4.5-5,6.7-7.6l14-14.4c4.9-4.6,9.7-9,14.3-13.5l14.4-12.4c2.3-2,4.8-3.9,7.2-5.7l7.1-5.6c4.5-3.7,9.3-7,13.8-10.2l6.7-4.8,3.2-2.3,3.3-2.1c8.7-5.6,16.5-10.9,23.8-14.9s13.5-8,18.9-10.7l10.1-5.4C453.7,666.1,442.6,764,429.7,814c-18.8,72.9-24.1,169.3-29.9,186.2s-6.8,63.7-6.8,63.7,19.8-144.7,25.6-175.1,37.6-170.2,44.6-228.7l9.1,9.1c1.9,2,4.2,4.1,6.4,6.7l7.4,8,4.1,4.4,4.2,4.7,8.8,10.5c1.6,1.9,3.2,3.7,4.7,5.7l4.7,6,4.8,6.2,2.4,3.2,2.4,3.3,9.7,13.8,9.5,14.9c.8,1.2,1.6,2.5,2.3,3.8l2.3,4c1.5,2.6,3.1,5.2,4.6,7.9s2.9,5.4,4.4,8.2l4.3,8.3a83.2,83.2,0,0,1,4.1,8.5l4.1,8.6c1.3,2.9,2.4,5.9,3.7,8.8s2.5,5.9,3.6,8.9a371.5,371.5,0,0,1,11.9,36.1c.8,3.1,1.7,6.1,2.5,9.1s1.4,6.1,2,9.1.8,2.9,1.1,4.5.5,3,.8,4.4c.6,3,1.1,6,1.7,8.9s.9,5.9,1.3,8.8.5,2.9.7,4.4.3,2.9.5,4.3l.9,8.5.6,8.3c.3,2.7.4,5.5.5,8.1s.3,5.3.3,7.9c0,5.2.2,10.1,0,14.9-.2,9.6-.9,18.4-1.7,26.1s-1.9,14.5-2.9,20a159.7,159.7,0,0,1-3.9,17.1,152.5,152.5,0,0,0,4.1-17.1c1-5.5,2.1-12.2,3-19.9s1.6-16.6,1.8-26.1c.2-4.8.2-9.8.2-15l-.3-7.9c-.1-2.7-.2-5.4-.4-8.1l-.6-8.4-.9-8.5c-.1-1.4-.3-2.9-.4-4.3l-.6-4.4c-.5-2.9-.9-5.8-1.3-8.8s-1.1-5.9-1.6-8.9c-.3-1.5-.6-3-.8-4.6s-.7-3-1-4.5l-2.1-9.1c-.7-3-1.5-6-2.3-9.1-3.2-12.2-7.3-24.3-11.7-36.3l-3.6-9c-1.2-2.9-2.4-5.9-3.7-8.8s-2.6-5.8-4-8.7-2.5-5.8-4-8.6-2.9-5.6-4.3-8.4-2.8-5.5-4.4-8.2l-4.5-8-2.3-4c-.7-1.3-1.5-2.6-2.3-3.9l-9.5-14.9-9.6-14-2.4-3.3-2.4-3.2q-2.4-3.3-4.8-6.3l-4.6-6.1c-1.5-2-3.2-3.8-4.7-5.7l-8.8-10.6-4.2-4.8-4.1-4.5-7.3-8.1c-2.3-2.6-4.5-4.7-6.5-6.7l-10.6-10.8c3.6-32.4,13.8-90.7,23-144.6l12.6,8.7c2.6,1.9,5.6,3.8,8.8,6.2l10,7.6,11.5,8.7,12.3,10.1,6.6,5.4c2.2,1.8,4.3,3.8,6.6,5.8l13.8,12.3,14.1,13.6,3.6,3.5,3.5,3.7,7.1,7.5,3.6,3.8c1.2,1.3,2.4,2.5,3.6,3.9l7,8c2.3,2.7,4.7,5.4,7,8.2l6.8,8.5c2.2,2.9,4.6,5.7,6.8,8.6s4.3,6,6.5,8.9c4.4,5.9,8.4,12.2,12.6,18.3l3,4.6,2.9,4.8,5.7,9.5c1,1.5,1.9,3.2,2.8,4.8l2.6,4.8c1.8,3.2,3.6,6.4,5.3,9.7l4.8,9.7,2.4,4.9,2.1,4.9c1.5,3.3,2.9,6.5,4.3,9.8l3.9,9.7c.6,1.6,1.3,3.2,1.9,4.9s1.2,3.2,1.7,4.8l3.4,9.6c.9,3.2,1.9,6.3,2.9,9.5.4,1.5.9,3.1,1.4,4.6l1.2,4.7c3.4,12.3,5.7,24.1,7.6,35.1s2.8,21.1,3.5,30.1.6,16.9.5,23.4-.5,11.6-.9,15.1-.6,5.3-.6,5.3.3-1.9.7-5.3.8-8.6,1-15.1.1-14.4-.3-23.4-1.5-19.2-3.2-30.2-4-22.9-7.3-35.3l-1.2-4.7c-.5-1.5-.9-3.1-1.4-4.6-.9-3.2-1.9-6.4-2.8-9.6l-3.3-9.6-1.6-4.9c-.7-1.6-1.3-3.2-1.9-4.9s-2.5-6.5-3.8-9.8l-4.2-9.8c-.7-1.7-1.5-3.3-2.2-5s-1.5-3.2-2.3-4.9l-4.8-9.8c-1.6-3.3-3.4-6.5-5.1-9.8l-2.6-4.9-2.7-4.8-5.7-9.6-2.9-4.8-3-4.7c-4.1-6.2-8.1-12.5-12.5-18.4-2.1-3.1-4.3-6.1-6.4-9.1s-4.5-5.8-6.8-8.7l-6.7-8.6-7-8.3-7-8.1c-1.1-1.4-2.3-2.7-3.5-4l-3.6-3.8-7.1-7.6c-1.1-1.3-2.3-2.5-3.5-3.7l-3.6-3.6-14-13.8-13.8-12.6-6.6-5.9-6.6-5.4-12.3-10.3-11.4-8.9-10.1-7.7c-3.1-2.4-6.1-4.4-8.7-6.3l-14.2-10c6.8-39.6,13-76.3,15.6-98,1.6-12.7,3.3-25.2,5.1-37.1l11.3,3.5c6,1.8,13.1,4.3,21.4,7s17.4,6,27.5,9.6l15.6,5.8c5.4,2.1,11,4.2,16.6,6.5l17.5,7.1,18.1,7.7,18.5,8.4,18.9,8.9c6.3,3,12.6,6.3,18.9,9.4l19,9.9,18.7,10.3c6.1,3.5,12.3,6.9,18.3,10.6l9,5.3,8.9,5.5c5.9,3.6,11.6,7.3,17.2,10.9s11,7.3,16.4,10.9,10.5,7.2,15.4,10.8c10,7.1,19.2,14.2,27.7,20.7s16,12.9,22.6,18.5,12.3,10.7,16.9,15c9.1,8.5,14,13.7,14,13.7s-4.8-5.3-13.8-13.9c-4.5-4.4-10.1-9.5-16.6-15.3S852,546.8,843.7,540s-17.5-13.9-27.4-21.1c-4.9-3.7-10.1-7.3-15.3-11.1s-10.7-7.5-16.3-11.2-11.2-7.5-17-11.2c-2.9-1.9-5.8-3.8-8.8-5.6l-8.9-5.5c-6-3.8-12.2-7.3-18.3-11s-12.4-7-18.6-10.6l-18.8-10.2-18.9-9.8-18.8-9.2-18.5-8.7-18.1-8-17.4-7.4c-5.6-2.5-11.2-4.6-16.6-6.8s-10.5-4.3-15.6-6.1c-10-3.8-19.2-7.3-27.5-10.1s-15.4-5.5-21.4-7.4l-12.3-4c5.2-33.5,10.3-61.2,10.5-73.5Z" fill="#e1e7cb"/>
  </g>
</svg>
