<svg xmlns="http://www.w3.org/2000/svg" viewBox="0 0 32 32">
  <defs>
    <style>
      .ab02267d-d0ae-4d9c-a7e3-b7bdb4966d03 {
        isolation: isolate;
      }

      .b4ea1570-bc7d-49a4-b8ad-3254218e6492 {
        fill: #ece3e3;
      }

      .b5fbbe9c-74ac-476d-b174-3d0c78c4c876 {
        mix-blend-mode: soft-light;
      }

      .ea096e57-8ae1-4713-8a3f-4ccbc6ccd38c {
        fill: #fff;
      }
    </style>
  </defs>
  <g class="ab02267d-d0ae-4d9c-a7e3-b7bdb4966d03">
    <g id="b1b4b24b-3a8a-4da1-bf2a-8bcfbdb4057e" data-name="Layer 1">
      <g>
        <path class="b4ea1570-bc7d-49a4-b8ad-3254218e6492" d="M12.9,1.6c0,.2-.1.4-.1.6a15.1,15.1,0,0,0,.7,8.9,2.1,2.1,0,0,0,.6,1v-.2a4.9,4.9,0,0,0-.1-1.2l-.9-4A8.2,8.2,0,0,1,13.1,4,3.7,3.7,0,0,1,16.8.8h4.4A4.4,4.4,0,0,0,22.8.2l.3-.2.2.2a6.7,6.7,0,0,0,2.1,2.3,8,8,0,0,1,1.3,1.3A2.7,2.7,0,0,1,27,7a6.5,6.5,0,0,1-1.6,1.7L23.5,10l-2.1,1.5a1.1,1.1,0,0,0-.4.5.6.6,0,0,0,.6-.1,17.1,17.1,0,0,0,2.3-1.3l4.2-3.3.5-.4c.1.1.1.2.2.2a12.8,12.8,0,0,1,.6,3.4,4.3,4.3,0,0,1-2.1,4.3,18.8,18.8,0,0,1-5.9,2.4l-1.5.4c-.2.1-.4.2-.4.5h1.2a20,20,0,0,0,5.3-2A13.2,13.2,0,0,0,28,15l1.9-1a.7.7,0,0,1,.2.6,8.7,8.7,0,0,1-.2,3.2c-.2.5-.3,1-.5,1.5a5.1,5.1,0,0,1-1.5,2.1,1.1,1.1,0,0,1-.6.3A5,5,0,0,1,26,22a25.4,25.4,0,0,1-3.9-.1l-2.6-.2h-.7q.1.3.3.3l1.3.2h2.9a8.5,8.5,0,0,0,1.6,0l3.3-.3h.4c.2.2.1.3,0,.5a25.6,25.6,0,0,1-2.2,3.5c-.2.2-.4.5-.6.6a2.5,2.5,0,0,1-2.2.4l-2.4-.7-.9-.2a1.2,1.2,0,0,0,.7.5,10.6,10.6,0,0,0,2.5.9l1,.3a.6.6,0,0,1,.6.4l-.7.7a11.4,11.4,0,0,1-4.1,2.4l-1.8.5a4.8,4.8,0,0,1-3.5-.6l-1.5-1a3.1,3.1,0,0,1-1-3.5,14.6,14.6,0,0,0,.5-2,.5.5,0,0,0,0-.5c0-.4-.4-.5-.7-.2a.8.8,0,0,0-.4.4L10.1,27a1.6,1.6,0,0,1-1.4.8,7.8,7.8,0,0,1-3-.7,6.9,6.9,0,0,1-2.4-2.4,13.2,13.2,0,0,1-1.5-6.2,9.5,9.5,0,0,1,.7-2.9,3.1,3.1,0,0,1,1-1.5l.3.5a10.3,10.3,0,0,0,3.7,4.3,1.2,1.2,0,0,0,1,.5l-.3-.5L6.6,17.2,5.1,15.4a4,4,0,0,1-.9-4A10.2,10.2,0,0,1,6.9,6.7c0-.1.1-.1.2-.2s.1.3.1.5a7.9,7.9,0,0,0,.5,3L8,11.2a11.1,11.1,0,0,0,2.1,4.2l.6.6c0,.1.2.1.3.2a1.4,1.4,0,0,0,0-.9c-.3-.6-.6-1.3-.9-1.8A20.9,20.9,0,0,1,8.2,9.9a7.8,7.8,0,0,1-.5-3.4A4,4,0,0,1,9.3,3.3a7.3,7.3,0,0,1,3.4-1.7ZM2.7,19.2a3.7,3.7,0,0,0,1.6,3.1,3.6,3.6,0,0,0,3.1.4l-.3-.3-1.4-.7a4.8,4.8,0,0,1-2-1.5l-.6-.7Zm13.2,2.5a1.1,1.1,0,0,0,1.1-.1c.2,0,.3-.2.4-.3s-.2-.3-.4-.4a1.3,1.3,0,0,0-1.2,0c-.4.2-.3.5,0,.7Zm1.4,3.9h.4l.4.2h.4a.6.6,0,0,0,0-.6,1.3,1.3,0,0,0-1.2-.6l-.3.2A.8.8,0,0,0,17.3,25.6Zm-4.7-6.7h.2c.4.1.6-.1.6-.5a1.4,1.4,0,0,0-.8-.9c-.3-.1-.4,0-.5.3A1.1,1.1,0,0,0,12.6,18.9Zm7.1,11.7c-.4-.3-1-.4-1.4-.7A6,6,0,0,1,17,29c.1.8.7,1.2,1.3,1.6S19.4,30.9,19.7,30.6ZM11,20.9c.1-.2-.3-.6-.4-.7a.9.9,0,0,0-.7-.3c-.2,0-.3,0-.4.2s-.1.4.1.5a1.3,1.3,0,0,0,1.3.3Zm6.2-3.1h.2a1.1,1.1,0,0,0,.8-.2.2.2,0,0,0,.2-.2.5.5,0,0,0-.2-.4,1.7,1.7,0,0,0-1,0c-.3.1-.3.4-.1.7Zm-2.5-2.9c.3.1.4,0,.5-.2a1,1,0,0,0-.4-.8c-.2-.1-.3,0-.3.1A.8.8,0,0,0,14.7,14.9ZM18.9,13h0v.4h.4l.3-.2.2-.4c0-.1-.1-.3-.2-.3A.8.8,0,0,0,18.9,13ZM17.3,9.4h-.1c-.4.3-.2.8,0,1.1a.2.2,0,0,0,.4-.1C17.7,10.2,17.6,9.4,17.3,9.4Z"/>
        <g class="b5fbbe9c-74ac-476d-b174-3d0c78c4c876">
          <path class="ea096e57-8ae1-4713-8a3f-4ccbc6ccd38c" d="M12.6,23.8h.9a.1.1,0,0,0,.1-.1h0a.1.1,0,0,0,.1-.1h.5c0-.1,0-.1.1-.1h.1c.1,0,.1,0,.1-.1H15s-.1-.1,0-.1h.1c0-.1,0-.1.1-.1h2a.1.1,0,0,0,.1-.1H19a.1.1,0,0,1,.1-.1h1.3c0-.1,0-.1.1-.1h.8c0-.1,0-.1.1-.1h.1c.1,0,.1,0,.1-.1h.9a.1.1,0,0,0,.1-.1h.2a.1.1,0,0,0,.1-.1h-.1a.1.1,0,0,1-.1.1h-.1c-.1,0-.1,0-.1.1h-.3a.1.1,0,0,0-.1.1h0a.1.1,0,0,1-.1.1h-.3a.1.1,0,0,0-.1.1h0c0,.1,0,.1-.1.1h-.2a.1.1,0,0,0-.1.1H19.1c-.1,0-.1,0-.1.1h-.8a.1.1,0,0,0-.1.1H15.5a.1.1,0,0,0-.1.1h-.2c-.1,0-.1,0-.1.1h-.2a.1.1,0,0,1-.1.1h-.2a.1.1,0,0,0-.1.1h-.7a.1.1,0,0,0-.1.1h-.1c0,.1,0,.1-.1.1h-.6c-.1,0-.1,0-.1.1h0a.1.1,0,0,0-.1.1h-.1Z"/>
          <path class="ea096e57-8ae1-4713-8a3f-4ccbc6ccd38c" d="M15.8,2.5h1c.1,0,0-.1,0-.1h-.7c-.1,0,0-.1,0-.1h-.3Z"/>
          <path class="ea096e57-8ae1-4713-8a3f-4ccbc6ccd38c" d="M25.9,4.2H24.8c-.1-.1-.1,0-.1,0h1.2Z"/>
          <path class="ea096e57-8ae1-4713-8a3f-4ccbc6ccd38c" d="M15.9,16.6H12a.1.1,0,0,1-.1-.1H10.6s-.1,0,0-.1h-.1c-.1,0,0-.1,0-.1h-.2s.1,0,0-.1h2.5a.1.1,0,0,1,.1.1h3Z"/>
          <path class="ea096e57-8ae1-4713-8a3f-4ccbc6ccd38c" d="M16.3,15.4h9.4a.1.1,0,0,0,.1-.1h.6a.1.1,0,0,0,.1-.1H16.3Z"/>
          <path class="ea096e57-8ae1-4713-8a3f-4ccbc6ccd38c" d="M14.2,20.2h-.5a.1.1,0,0,1-.1-.1h-.4a.1.1,0,0,0-.1-.1H10.6c0-.1,0-.1-.1-.1H8.1a.1.1,0,0,1,.1.1H12c.1,0,.1,0,.1.1h1.7s0,.1.1,0h.3Z"/>
          <path class="ea096e57-8ae1-4713-8a3f-4ccbc6ccd38c" d="M28.3,18.4H28c-.1,0-.1,0-.1.1h-3s-.1.1-.1,0H22.6c0,.1,0,0-.1,0h-6a.1.1,0,0,1-.1-.1h-.7a.1.1,0,0,1,.1.1h7.5c.1-.1.1-.1.1,0h0c0,.1.1,0,.1,0h1.3c0-.1.1,0,.1,0h1a.1.1,0,0,0,.1-.1h2.1c.1,0,.1,0,.1-.1h.1Z"/>
          <path class="ea096e57-8ae1-4713-8a3f-4ccbc6ccd38c" d="M3,17.2h.1a.1.1,0,0,0,.1.1H5a.1.1,0,0,0,.1.1H9.4a.1.1,0,0,0,.1.1H9.2a.1.1,0,0,0-.1-.1H8.6a.1.1,0,0,0-.1-.1H3.7a.1.1,0,0,1-.1-.1H3Z"/>
          <path class="ea096e57-8ae1-4713-8a3f-4ccbc6ccd38c" d="M26.3,24.4H25.2c0-.1,0-.1-.1-.1H22.5a.1.1,0,0,0-.1-.1H20.6c0-.1-.1,0-.1,0H15.8a.1.1,0,0,1,.1.1h3.5s.1-.1.1,0H21a.1.1,0,0,0,.1.1h3.7a.1.1,0,0,0,.1-.1h1.4Z"/>
          <path class="ea096e57-8ae1-4713-8a3f-4ccbc6ccd38c" d="M16.2,29.7H13.8a.1.1,0,0,0-.1-.1h-.3c0,.1,0,.1.1.1h.2a.1.1,0,0,0,.1.1h2.4Z"/>
          <path class="ea096e57-8ae1-4713-8a3f-4ccbc6ccd38c" d="M5,24h5.1c-.1-.1-.1,0-.1,0H9.9c-.1.1-.1,0-.1,0H5.2a.1.1,0,0,1-.1-.1H5Z"/>
        </g>
      </g>
    </g>
  </g>
</svg>
