<svg xmlns="http://www.w3.org/2000/svg" viewBox="0 0 198 228">
  <g id="b86a0fb4-dad0-4695-98f0-e2f485c13703" data-name="OBJECTS">
    <path d="M125.5,83.1c1.8,1.4,3.6,2.8,5.5,4.1L147.4,98c5,3.5,10,7,15.1,10.4a22.4,22.4,0,0,1,6.2,5.7c2.5,3.6,3.7,7.4,2.3,11.8s-3.5,10-5.6,14.9a36.9,36.9,0,0,0-3,10.3c-.1.9-.8,1.1-1.5.5a6.4,6.4,0,0,1-1.3-1.5l-2.1-3.1c-3.7-5.9-7.3-11.9-11.4-17.6a66,66,0,0,0-10.9-12.7,89.8,89.8,0,0,1-8.3-8,112.2,112.2,0,0,0-10-9.5l-1.6-1.1q-1-.6-.9.6a6.7,6.7,0,0,0,.5,1.9,21.4,21.4,0,0,0,2,3.2c3.8,4.7,7.5,9.5,11.4,14a64,64,0,0,1,9.1,13.5c2.8,5.7,5.6,11.4,8.3,17.1a45.9,45.9,0,0,1,2.9,8.1,4.2,4.2,0,0,1-.3,3.1c-.5.9-1,1.8-1.6,2.7-2.3,3.3-4.7,6.5-7,9.9a21.4,21.4,0,0,1-6.6,6.8c-.8.6-.9.6-1.4-.3a75.4,75.4,0,0,1-5.7-11.8c-2.3-5.7-4.3-11.5-6.6-17.2s-5.6-13.4-8.8-19.9a20.5,20.5,0,0,0-5.4-6.7,9.1,9.1,0,0,0-2.9-1.9c-2.3-.7-5.5,1.1-4.6,4.2a8.5,8.5,0,0,0,.6,1.7c.5,1.3,1.1,2.5,1.7,3.7,4,7.2,7.9,14.5,11.8,21.7a98.1,98.1,0,0,1,6.4,12.5c1.3,3.6,2.8,7.1,3.3,10.8a16.3,16.3,0,0,1-5.5,15.6,48.7,48.7,0,0,1-5.2,3.7l-11.1,7.2-1.7,1c-.8.4-1.4,0-1.5-.9a7.8,7.8,0,0,1,.2-1.4l1.8-5.9a29.3,29.3,0,0,0,.5-14.7c-1.7-6.9-3.7-13.8-5.6-20.7a12.7,12.7,0,0,0-3.2-5.5,5.3,5.3,0,0,0-2-1.6,1.3,1.3,0,0,0-2,.4,25.6,25.6,0,0,0-1.1,2.4,12.3,12.3,0,0,0-.1,5.4c.4,2.8.9,5.5,1.4,8.2a119.9,119.9,0,0,1,1.9,13.2,98,98,0,0,1,.4,14.3c-.1,1.6-.5,3.1-.5,4.7a3.5,3.5,0,0,1-1.4,2.7,18.8,18.8,0,0,1-2.3,1.6A46,46,0,0,1,74,209.4l-2.6.4a.6.6,0,0,1-.4-1.2,12.6,12.6,0,0,0,3.4-3.5,14.3,14.3,0,0,0,2.7-6.6,26.2,26.2,0,0,0-2.3-13.8c-.5-1.2-1-2.4-1.4-3.6s-.7-3.5-1.1-5.3-.4-1-1.2-1.1a2.3,2.3,0,0,0-2.6,1.2,5.2,5.2,0,0,0-.9,2,74.9,74.9,0,0,0-1.8,7.9c-.4,3.1-.5,6.1-.7,9.2a54,54,0,0,1-1.6,11.4c-.5,1.5-.5,1.5-2,1.5H48.7l-4.2-.3c-.5-.1-.7-.3-.5-.8a13.6,13.6,0,0,0-.5-8.9,31.1,31.1,0,0,0-3.2-5.6,6.2,6.2,0,0,1-.5-6.3,27.7,27.7,0,0,1,4.5-6.8c2.6-3,5.4-6,8.1-8.9a30.4,30.4,0,0,0,4.3-5.7,8.9,8.9,0,0,0,1.2-4.5c-.1-1.7-1.1-2.5-2.7-2.1a10.2,10.2,0,0,0-2.9,1.1,49.3,49.3,0,0,0-13.4,11.5,10.5,10.5,0,0,0-2.5,5.8v3.7c0,.8.1,1.6.1,2.5a.9.9,0,0,1-1.5.7l-.9-.8a30.9,30.9,0,0,1-4.4-6.3A55.4,55.4,0,0,1,25,166a12.9,12.9,0,0,1,.6-10.2,16.8,16.8,0,0,1,6.1-6.3,58.9,58.9,0,0,1,6.6-3.4,156,156,0,0,0,16.6-8.9c2.4-1.4,4.7-2.9,7-4.5a14.1,14.1,0,0,0,4.4-4.7c.8-1.6,0-3-1.8-2.9a9.5,9.5,0,0,0-2.9.7,96.1,96.1,0,0,0-12.8,6.5c-4.7,2.6-9.3,5.3-13.9,8-2.2,1.2-4.4,2.6-6.5,4a9.7,9.7,0,0,0-4,5.5,28.1,28.1,0,0,0-1,3.1,2.5,2.5,0,0,1-.4.7c-.4.5-.8.6-1.3.2a3.8,3.8,0,0,1-.9-1.3,18.2,18.2,0,0,1-1.1-3c-.6-2.9-1-5.9-1.6-8.8a61,61,0,0,1-1.2-12.8,10.2,10.2,0,0,1,2.8-7,30.8,30.8,0,0,1,7.7-5.7,66.5,66.5,0,0,1,15.7-5.5l15.9-4a32.2,32.2,0,0,0,7.9-3.3,8.1,8.1,0,0,0,2.7-2.8c.3-.6.2-.9-.4-1.1a6.4,6.4,0,0,0-1.7-.5,29.5,29.5,0,0,0-4.2.2,58,58,0,0,0-15.9,4c-5.2,1.8-10.3,3.9-15.5,5.8a30.9,30.9,0,0,0-13.4,9.1,34.5,34.5,0,0,1-2.6,2.8c-.2.3-.8.5-1,.3s-.4-.6-.6-.9,0-.5,0-.7.3-3,.5-4.5.7-5.2.9-7.9.5-7,.8-10.5a16.6,16.6,0,0,1,6.8-12.6,32.1,32.1,0,0,1,10.3-4.7,45.4,45.4,0,0,1,14.7-.8c4.3.4,8.7,1,13,1H71.8a5,5,0,0,0,2.1-.5c1.1-.5,1.1-1.3.1-1.9a9.8,9.8,0,0,0-3-1.3c-2.1-.5-4.2-.9-6.4-1.2a101.9,101.9,0,0,0-13.5-.8c-7.3.1-14.4,1.5-21.7,2.4l-6.1.9a25.7,25.7,0,0,1-4.8.2c-1.5-.1-1.8-.9-1-2.2a36.5,36.5,0,0,0,1.8-3.4,59.6,59.6,0,0,1,7-12.6,20.8,20.8,0,0,1,14.2-8.6,28.5,28.5,0,0,1,10.5.6c3.8.9,7.5,2,11.3,3.1l9.1,2.8,2,.4v-.3l-.9-.8-3.8-2.1A98.7,98.7,0,0,0,53.3,47a24.6,24.6,0,0,0-4.6-.8c-3.6-.3-7,.6-10.3,1.4l-2.9.7c-.9.2-1.3-.4-.9-1.2a29.5,29.5,0,0,1,2.1-3.5A42.8,42.8,0,0,1,52.3,31.9a26.3,26.3,0,0,1,9.2-2.6,9.8,9.8,0,0,1,4.8.5A16,16,0,0,1,71.6,33l4.1,4.2a9.7,9.7,0,0,0,3.2,2.2c1.7.5,2.8-.5,2.4-2.2a10.7,10.7,0,0,0-1-2.2c-1.1-1.7-2.3-3.5-3.6-5.2a9.2,9.2,0,0,0-2.8-3.1,8.6,8.6,0,0,0-7.8-.4,14.8,14.8,0,0,1-2.7,1c-1.6.4-2.4-.4-2-1.9a11.3,11.3,0,0,1,6.7-8.3,24.3,24.3,0,0,1,9.9-2,33.4,33.4,0,0,1,10.9,1,24.5,24.5,0,0,1,11.2,7.5,13.8,13.8,0,0,1,3.4,9,56.3,56.3,0,0,1-.5,5.9c-.4,2.5-.8,4.9-1.1,7.4a5.5,5.5,0,0,0,.2,2.2c.6,1.6,1.9,1.8,2.8.5a8.5,8.5,0,0,0,1.5-3c.7-2.1,1.3-4.4,1.9-6.6s1.3-4.2,2.1-6.2a21.3,21.3,0,0,1,7.2-8.8,28.3,28.3,0,0,1,2.8-2c3-1.9,6.4-2.3,9.9-2.1a21.4,21.4,0,0,1,4.3.7,36.7,36.7,0,0,1,7.2,2,77.5,77.5,0,0,1,11.5,5.8,28.4,28.4,0,0,1,5.4,4.3c1.5,1.5,3,2.9,4.3,4.4a8.7,8.7,0,0,1,2.1,4.9c.1.8-.3,1.2-1.1.9l-1.7-.8a16.9,16.9,0,0,0-9.4-1.5,45.1,45.1,0,0,0-5.3.9c-3.7.9-7.5,1.3-11,2.8h-.3c-.6,0-.8.4-1,.8s0,1.9,1.3,2.4a14.1,14.1,0,0,0,5,.7c4.4.1,8.7-.7,13.1-1.4,2.3-.4,4.7-.8,7-1a5.9,5.9,0,0,1,5,1.8,52.6,52.6,0,0,1,10.4,14.2,36,36,0,0,1,3.1,8.5,13.3,13.3,0,0,1,.3,2.8,1,1,0,0,1-1.5,1l-2.4-1a122.6,122.6,0,0,0-12.9-5.6,71.9,71.9,0,0,0-14.3-3.8,41.2,41.2,0,0,0-8.5-.7,6,6,0,0,0-2.9.8c-1.5.9-1.5,1.7,0,2.6a25,25,0,0,0,7.4,3c3.3.8,6.7,1.4,10,2.1a106.2,106.2,0,0,1,15.7,5,13.4,13.4,0,0,1,7.3,7.3,28.6,28.6,0,0,1,2.2,12.3,7.4,7.4,0,0,0,0,2.1,34.3,34.3,0,0,1-3,15.1,6.9,6.9,0,0,1-2.9,3.4c-.1-.2-.3-.4-.3-.6a18.5,18.5,0,0,0-2.8-5.4,62.4,62.4,0,0,0-10.3-11.5,38.9,38.9,0,0,0-5-4.1,47.3,47.3,0,0,0-7.1-3.6,137.7,137.7,0,0,1-13.5-6.3,61.8,61.8,0,0,0-10.3-4.2,1.7,1.7,0,0,0-1.7,0A11.6,11.6,0,0,0,125.5,83.1ZM95.1,107.5a3.2,3.2,0,0,0,.3,1.4,14.4,14.4,0,0,0,7.8,6.8l1,.2c.8,0,1.1-.5.8-1.2l-.6-1.2a38,38,0,0,0-5.3-6.1l-1.7-1.2C95.7,105.6,95,106.1,95.1,107.5ZM81.7,138.8a8.9,8.9,0,0,0,2,5,3.5,3.5,0,0,0,2.6,1.3,1,1,0,0,0,1.2-.8,6.1,6.1,0,0,0-.1-4.2,9.8,9.8,0,0,0-2.9-4.5c-1.2-1.1-1.8-.9-2.5.5s-.1.4-.1.6h-.2A14.7,14.7,0,0,0,81.7,138.8ZM106,71.2a1.7,1.7,0,0,0,.2,2.1,7.2,7.2,0,0,0,3.1,2.3c1.2.5,2.5,1.1,3.8,1.5a2.9,2.9,0,0,0,1.6.1c.9-.2,1-.9.4-1.5l-1.8-1.6-4.1-3.2a2.5,2.5,0,0,0-.8-.5A1.8,1.8,0,0,0,106,71.2ZM79.2,113.6a1.4,1.4,0,0,0-1.1-.1,4.2,4.2,0,0,0-1.6.4l-5.4,2.9-1,.7c-.3.4-.6.9-.3,1.3a1.5,1.5,0,0,0,1,.6,12,12,0,0,0,3.3-.6,35.5,35.5,0,0,0,3.9-2,9.7,9.7,0,0,0,1.5-1.9A4.2,4.2,0,0,0,79.2,113.6ZM98.3,84.9a4.9,4.9,0,0,0,3.9,4l1.5.3a2.9,2.9,0,0,0,1.3-.5.8.8,0,0,0,0-1.3,27.6,27.6,0,0,0-2.9-3,11.3,11.3,0,0,0-1.8-1.2C98.6,82.8,98.1,83.2,98.3,84.9ZM80.4,94.4a2.5,2.5,0,0,0,1.2.2,9.5,9.5,0,0,0,5.7-2.9c.6-.6.2-1.6-.8-1.8s-5.8,1.5-6.6,2.9-.1.3-.1.2S79.7,94.2,80.4,94.4Z"/>
  </g>
</svg>
