<svg xmlns="http://www.w3.org/2000/svg" viewBox="0 0 32 32">
  <defs>
    <style>
      .f22cf865-48b5-4694-a2a7-b7ce42ca8b31 {
        isolation: isolate;
      }

      .ab54da8b-32e4-4f8d-87bb-faa89ef47fa3 {
        fill: #ece3e3;
      }

      .b49668fb-c407-4a68-811b-6608fb918a75 {
        mix-blend-mode: soft-light;
      }

      .f057cb5e-9a93-4b78-8846-9553378095d8 {
        fill: #fff;
      }
    </style>
  </defs>
  <g class="f22cf865-48b5-4694-a2a7-b7ce42ca8b31">
    <g id="e48d001b-c036-4641-a695-cb958535755c" data-name="Layer 1">
      <g>
        <path class="ab54da8b-32e4-4f8d-87bb-faa89ef47fa3" d="M20.3,21.1h.3l1.7-.8,2.2-1a3.4,3.4,0,0,0,1.2-.6l.8-.6a15.4,15.4,0,0,0,1.7-1.9,1.8,1.8,0,0,0,.4-.9h.1a1.2,1.2,0,0,1,.5.5,7.4,7.4,0,0,1,.5,2.5v.4a4.8,4.8,0,0,1-.4,2,2.3,2.3,0,0,1-1.2,1.2l-2.6.8-1.6.4-1.2.4c-.3.2-.3.3,0,.5h1.8l2.4-.6,2.1-1h.4c.1-.1.2,0,.2.1v.5a5.8,5.8,0,0,1-.5,1.4,8.1,8.1,0,0,1-1.7,2.3.7.7,0,0,1-.8.3H25.4a7.8,7.8,0,0,0-2.2-.3l-.8.2c-.2,0-.2.1-.2.3a.2.2,0,0,0,.2.2h0l1.8.4.9.2a2.9,2.9,0,0,0,1.6-.2c0-.1.1-.1.2-.2s.2,0,.2.2a1.1,1.1,0,0,1-.3.8l-.7.7-.9.7-1.9,1-1.2.3h-.7a2.9,2.9,0,0,1-1.6-.3l-.5-.4a4.1,4.1,0,0,1-1.2-1.4l-.3-1L17.5,27l-.3-.5c-.1-.2-.3-.2-.4.1a.4.4,0,0,0-.1.3,5,5,0,0,1,.2,1.2c0,.4.1.7.1,1a2,2,0,0,1-.6,1.5,3.6,3.6,0,0,1-1.8,1.2,5.5,5.5,0,0,1-1.8.2,4.1,4.1,0,0,1-1.6-.3,1.9,1.9,0,0,1-1.1-1.4q-.2-.4.3-.3l.4.2a1.5,1.5,0,0,0,1.3-.1,1.2,1.2,0,0,0,.5-.5l.6-.9.2-.3c0-.3-.2-.5-.4-.4l-.6.4-.7.6a2.4,2.4,0,0,1-.8.6h-.8l-1.5-.5A6.1,6.1,0,0,1,6,27.3l-.3-.6c-.1-.1,0-.2.1-.2h.5a4.7,4.7,0,0,0,1.7.3h.7l2.6-1.1.6-.3.2-.2h-.4l-1.5.4-1.8.5a3.7,3.7,0,0,1-1.8.1,3.3,3.3,0,0,1-2.3-1.4,7,7,0,0,1-1.1-2.1l-.3-.5c-.2-.2-.1-.4.1-.4h.8l1,.2c1.2.1,2.4.4,3.6.4h2.2l1.1-.2.4-.2a.2.2,0,0,0,0-.4h-.3a9.6,9.6,0,0,0-1.7,0H7.9a6.5,6.5,0,0,1-2.4-.1,5.3,5.3,0,0,1-1.7-.8,2.7,2.7,0,0,1-1.1-2A10.9,10.9,0,0,1,2.6,17c-.1-.4-.1-.8-.2-1.3a1.7,1.7,0,0,0-.1-.7h0a.3.3,0,0,0,.1-.2c.1,0,.2,0,.2.1l.4.4a5.4,5.4,0,0,0,2.2,1.5l2.6,1a11,11,0,0,0,2.6.6h1c.1,0,.1-.1,0-.2l-.4-.5-1.3-.5-2.6-.6a11.7,11.7,0,0,1-2.6-1,3.8,3.8,0,0,1-1.3-.9,1.5,1.5,0,0,1-.4-1.1A6.8,6.8,0,0,1,3,11.4c.1-.5.1-1,.2-1.5l.2-.5.2-.2h.2v.2c.1.1.1.3.2.5a2.4,2.4,0,0,0,.6.9l1.1.6L8,12.7l2.1,1.1h.5c.3,0,.4-.2.3-.5l-.7-.7L9,11.9,6.3,10.5,5.2,9.9a2.4,2.4,0,0,1-1-1,2,2,0,0,1-.1-1.7,13,13,0,0,1,.8-1.7,6.1,6.1,0,0,1,.7-1h.1c.2-.1.3-.1.3.1v1a1.1,1.1,0,0,0,.4.9A6.7,6.7,0,0,0,8.6,8.3l.5.2c.2.1.4-.1.4-.3a2.4,2.4,0,0,0-.2-.8l-.7-.9L7.3,5a4.4,4.4,0,0,1-.8-1.1,1.1,1.1,0,0,1,.1-1A4.1,4.1,0,0,0,7.1,2,2.6,2.6,0,0,0,7.2.5h2.9c.2,0,.2,0,.3.2a14.8,14.8,0,0,1,.3,1.9,7.6,7.6,0,0,0,.1,1.5l.3,1.3c0,.2.1.3.1.4l.5.2c.1,0,.1-.1.2-.2a2.9,2.9,0,0,1,.2-.9,1.4,1.4,0,0,1,.2-.6,5.7,5.7,0,0,0,.4-2.2A3.7,3.7,0,0,0,12.2.8a1.5,1.5,0,0,0-.5-.6h.4a6.4,6.4,0,0,1,1.8.6l.3.3c.2.1.3.2.3.4a2.2,2.2,0,0,0,.1.8,17.7,17.7,0,0,1-.1,2.3,14.6,14.6,0,0,1-.3,2.2L13.9,8a2.8,2.8,0,0,0,.1.9.5.5,0,0,0,.2.4c.1.2.1.2.3.1l.3-.3a1.3,1.3,0,0,0,.5-.9c.3-1.1.7-2.2,1-3.4a6.5,6.5,0,0,0-.1-2.4l-.3-1a.1.1,0,0,1,0-.2c0-.1.1-.2.2-.1h.3l1.8,1.2.9.6A3.1,3.1,0,0,1,20,5.6a12.7,12.7,0,0,1-.6,1.8c-.3.7-.7,1.3-1,2l-2,3.6-.3.6a.4.4,0,0,1-.1.3.6.6,0,0,0,.8.7l.5-.4a5.3,5.3,0,0,0,.9-1.1,30.9,30.9,0,0,0,1.4-3.2c.4-1,.7-1.9,1.1-2.8a12.1,12.1,0,0,1,.9-2h.3A3.8,3.8,0,0,1,23,6.2l1.1,1.6.3.5c.1.1,0,.3,0,.5a6.9,6.9,0,0,1-.5,1.3l-1.3,2.8a10.7,10.7,0,0,1-1.5,2.2l-1.9,2.3-.3.5a.6.6,0,0,0-.1.4h.1l.3-.2a12.1,12.1,0,0,0,1.6-1.6l1.4-1.3A9.1,9.1,0,0,0,24,13.2a29,29,0,0,0,1.9-2.9l.3-.5.2-.2h.3a3.4,3.4,0,0,0,.5,1.7l.9,2.5a2.2,2.2,0,0,1-.4,1.9,4.7,4.7,0,0,1-1,1l-2.5,1.7-2.7,1.7-.9.7ZM16,17l.3-.2a3.9,3.9,0,0,0,.8-1c.1,0,.1-.1.1-.2s0-.2-.1-.2h-.2a2.1,2.1,0,0,0-1.2,1.1c-.1,0-.1.1-.1.2S15.7,17.1,16,17Zm-2.6-5h.1c.1.2.2.3.4.1l.5-.7c0-.3.1-.5,0-.7s-.1-.2-.2-.2l-.5.2a3.2,3.2,0,0,0-.3.9Zm4.4,10.9h.1a1.8,1.8,0,0,0,.7-.5l.3-.3c.1-.1.1-.2-.1-.2h-.2l-.7.3c-.2,0-.3.2-.5.3s-.1.3,0,.4S17.6,23,17.8,22.9Zm-4.7-7.3-.3-.3c-.2-.1-.4-.3-.6-.3h-.7c-.1,0,0,.1,0,.2h.2l.9.4c0,.1.1.1.2.1H13A.3.3,0,0,1,13.1,15.6Zm3.4,5.2.3-.2.4-.5c.1-.1.1-.1,0-.2h-.4a.9.9,0,0,0-.7.6C16.1,20.8,16.2,20.9,16.5,20.8Zm-3.4-1.6h0c.1.2.9.6,1.1.5s.2-.2.1-.3a1.3,1.3,0,0,0-.9-.5h-.2C13.1,19,13.1,19.1,13.1,19.2Z"/>
        <g class="b49668fb-c407-4a68-811b-6608fb918a75">
          <path class="f057cb5e-9a93-4b78-8846-9553378095d8" d="M17.2,26.5h-.1a.1.1,0,0,1-.1-.1H15.8c-.1,0-.1,0-.1-.1h-.6A.1.1,0,0,1,15,19h-.1a.1.1,0,0,1-.1-.1h-.2c0-.1,0-.1-.1-.1h-.1a.1.1,0,0,0-.1-.1H12.1a.1.1,0,0,1-.1-.1h-.2c-.1,0,0,0,0-.1H10.6c0-.1,0-.1-.1-.1h-1c0-.1,0-.1-.1-.1H9a.1.1,0,0,0-.1-.1H8.2a.1.1,0,0,1,.1.1h.2a.1.1,0,0,0,.1.1h0a.1.1,0,0,0,.1.1H9a.1.1,0,0,0,.1.1H13a.1.1,0,0,0,.1.1H14c.1,0,.1,0,.1.1h.5a.1.1,0,0,1,.1.1h.9a.1.1,0,0,0,.1.1h.1c.1,0,.1,0,.1.1h.5a.1.1,0,0,0,.1.1h0a.1.1,0,0,0,.1.1H17a.1.1,0,0,1,.1.1h.1Z"/>
          <path class="f057cb5e-9a93-4b78-8846-9553378095d8" d="M13.3,1.3h-.1c.1,0,0,0,0,.1h0c0,.1.1.1,0,.1h.3c-.1,0,0,0,0-.1h0s-.1-.1,0-.1h-.2Z"/>
          <path class="f057cb5e-9a93-4b78-8846-9553378095d8" d="M12.1,10.4Z"/>
          <path class="f057cb5e-9a93-4b78-8846-9553378095d8" d="M18.2,3.9h0a.1.1,0,0,1-.1.1H18c.1,0,0,.1,0,.1H16.7c-.1,0-.1,0-.1.1h-.1c-.1,0-.1.1,0,.1h1.7Z"/>
          <path class="f057cb5e-9a93-4b78-8846-9553378095d8" d="M4.1,12.2h9.4s0,.1.1,0H12.5a.1.1,0,0,1-.1.1H5.7a.1.1,0,0,0-.1-.1H4.1Z"/>
          <path class="f057cb5e-9a93-4b78-8846-9553378095d8" d="M3.7,17.8H7.2a.1.1,0,0,0,.1.1h6.8c0-.1,0,0,.1,0H7.4c0-.1,0-.1-.1-.1H5.6a.1.1,0,0,1-.1-.1H3.7Z"/>
          <path class="f057cb5e-9a93-4b78-8846-9553378095d8" d="M22.7,7.1h0a.1.1,0,0,1-.1.1h-.5c.1.1,0,.1,0,.1h-1c0,.1,0,.1-.1.1H17.5a.1.1,0,0,0-.1.1H17a.1.1,0,0,1-.1.1H15.5c.1,0,.1,0,.1-.1h.6c.1,0,.1,0,.1-.1h1.4a.1.1,0,0,1,.1-.1h.5a.1.1,0,0,1,.1-.1h.7c.1,0,0-.1.1-.1H21a.1.1,0,0,1,.1-.1h1.6Z"/>
          <path class="f057cb5e-9a93-4b78-8846-9553378095d8" d="M5.4,24H7.5c.1-.1.1,0,.1,0H9c.1,0,.1.1.1,0h6.2c0,.1-.1,0-.1,0H9.9a.1.1,0,0,0-.1-.1H8.5c-.1,0-.1,0-.1.1H8.3s-.1.1-.1,0H7.9c-.1,0-.1,0-.1.1H7.7c-.1.1-.1,0-.1,0H6.2c-.1,0-.1.1-.1,0H5.4Z"/>
          <path class="f057cb5e-9a93-4b78-8846-9553378095d8" d="M8.4,27.9h3.2a.1.1,0,0,0,.1-.1H9.6a.1.1,0,0,1-.1.1H8.4Z"/>
          <path class="f057cb5e-9a93-4b78-8846-9553378095d8" d="M13.4,31h.4c.1,0,0,0,.1-.1h.6c0-.1,0-.1-.1-.1h.7s-.1-.1,0-.1h1.4c0-.1.1,0,.1,0H13.7a.1.1,0,0,0-.1.1h-.2Z"/>
          <path class="f057cb5e-9a93-4b78-8846-9553378095d8" d="M28.6,18.3h-.4c-.1,0-.1,0-.1.1H26.6a.1.1,0,0,0-.1.1h-.4A.1.1,0,0,0,26,20h-.2a.1.1,0,0,1-.1.1H24.6a.1.1,0,0,0-.1.1h-.1a.1.1,0,0,0-.1.1H21.1a.1.1,0,0,1-.1.1h-.2a.1.1,0,0,0-.1.1H19c.1,0,.1,0,.1-.1h.7a.1.1,0,0,1,.1-.1h1.8a.1.1,0,0,0,.1-.1h.4c0-.1,0-.1.1-.1h1.5a.1.1,0,0,0,.1-.1h4.5c.1,0,.1,0,.1-.1h.1Z"/>
          <path class="f057cb5e-9a93-4b78-8846-9553378095d8" d="M27.8,24.5h-.1a.1.1,0,0,1-.1.1H24c-.1,0-.1,0-.1.1h0c-.1,0-.1-.1-.1,0H21.9s-.1.1-.1,0h-3a.1.1,0,0,1-.1-.1h-2c0,.1,0,.1.1.1h9.3c0-.1,0,0,.1,0h1.6Z"/>
          <path class="f057cb5e-9a93-4b78-8846-9553378095d8" d="M24.4,28.3H22.5a.1.1,0,0,1-.1.1h-.1a.1.1,0,0,0-.1-.1H17.7a.1.1,0,0,1-.1-.1h-.2c-.1,0-.1.1-.1,0h-.1a.1.1,0,0,0,.1.1h.2a.1.1,0,0,0,.1.1h2.9a.1.1,0,0,0,.1.1h2.2s0,.1.1,0h1.5Z"/>
          <path class="f057cb5e-9a93-4b78-8846-9553378095d8" d="M27,12.4H25a.1.1,0,0,0-.1.1H19.7a.1.1,0,0,0-.1.1H16.2a.1.1,0,0,0-.1.1H16a.1.1,0,0,0,.1-.1H17a.1.1,0,0,1,.1-.1h.7c.1,0,.1,0,.1-.1h1a.1.1,0,0,0,.1-.1h4.1a.1.1,0,0,1,.1-.1H27Z"/>
        </g>
      </g>
    </g>
  </g>
</svg>
