<svg xmlns="http://www.w3.org/2000/svg" viewBox="0 0 32 32">
  <defs>
    <style>
      .ad391fae-2e9b-45e6-b863-3fcb3dca0127 {
        isolation: isolate;
      }

      .e86c735f-f2f8-498f-8456-a9f63e0e3091 {
        fill: #30673f;
      }

      .bbed4315-d303-4b01-8cbd-110c0d15961e {
        mix-blend-mode: soft-light;
      }

      .a6557f48-5ce3-4362-a57e-2a27ede3ae42 {
        fill: #fff;
      }
    </style>
  </defs>
  <g class="ad391fae-2e9b-45e6-b863-3fcb3dca0127">
    <g id="a6246540-6dd3-418a-9857-c057dd3f6b3c" data-name="Layer 1">
      <g>
        <path class="e86c735f-f2f8-498f-8456-a9f63e0e3091" d="M19.1,0l.2.2a5.3,5.3,0,0,0,1.5,1.1,9.9,9.9,0,0,1,2,1.3.9.9,0,0,1,.3,1.3,2.1,2.1,0,0,1-.6,1L20.1,8l-.6,1a1.3,1.3,0,0,0-.1.6c0,.4.2.5.6.4a3.8,3.8,0,0,0,1.6-1.2A8.5,8.5,0,0,0,23,6.9l.6-.9a5,5,0,0,0,.9-2.3c0-.2.1-.4.1-.7l.3.2A4.6,4.6,0,0,1,26,6.9c-.1.2-.1.4-.2.6a1.8,1.8,0,0,1-.6.9l-1.1.8-1.6,1.5-1.9,1.5-1.4,1.1a2.4,2.4,0,0,0-.6,1.1.6.6,0,0,0,.5.8h.6l1.1-.4.7-.5c1.2-1.1,2.4-2.1,3.5-3.3l2.5-2.2.5-.3c.3-.2.5-.1.7.2l.2.3a5.8,5.8,0,0,1,.4,1.9,1.4,1.4,0,0,1-.2.6,8.1,8.1,0,0,1-1.8,1.9,4.8,4.8,0,0,0-1.1.9,7.6,7.6,0,0,1-1.9,1.2l-1.9.9-1.9,1.1a.8.8,0,0,0-.4.4h.3a1.1,1.1,0,0,0,.8,0,16.2,16.2,0,0,0,5.2-2.3,8.5,8.5,0,0,0,1.7-1.6l1.1-1.3a.6.6,0,0,1,.5-.3.5.5,0,0,1,.3.5c.2.9.3,1.8.5,2.6s-.1.8-.6,1.1a16.3,16.3,0,0,0-1.9.9l-1.2.8a5.2,5.2,0,0,1-2,.9l-1.9.5-1.8.6a.5.5,0,0,0-.5.3c.1.3.2.3.4.3h1.1a20.5,20.5,0,0,0,3.4-.7,6.1,6.1,0,0,0,1.8-.9l2.6-1.9c.1-.1.2-.3.4-.2s.1.3.1.4v1.7a8.6,8.6,0,0,1-.6,2.3A2.7,2.7,0,0,1,28.4,23a9.1,9.1,0,0,1-3.2.6,4.9,4.9,0,0,1-1.7-.1l-1.7-.2-1,.2-.4.3a1,1,0,0,0,.5.6,4.4,4.4,0,0,0,1.6.6,11.6,11.6,0,0,0,5.8-.9,1.9,1.9,0,0,1,.8-.3v.5c-.1.2-.1.4-.2.6a8.1,8.1,0,0,1-2.1,2.4,1.2,1.2,0,0,1-.8.4.5.5,0,0,1-.5,0,10.3,10.3,0,0,0-2.4-.5l-2.2-.5a4.7,4.7,0,0,0-1.7-.4h-.6c-.3,0-.3.2-.3.4a2.1,2.1,0,0,0,.4.6,3.4,3.4,0,0,0,1.7.8,4.4,4.4,0,0,0,2,.2h3.3l-.6.7-1.7,1.4A10.6,10.6,0,0,1,19.6,32a6.6,6.6,0,0,1-2.8-.4,4.9,4.9,0,0,1-1.7-1.5,4.6,4.6,0,0,1-1-3.4,6.6,6.6,0,0,0-.1-1.4,4.1,4.1,0,0,0-.3-.8c-.1-.2-.3-.3-.6-.1l-.4.4a3.3,3.3,0,0,0-.4,1.4,8.2,8.2,0,0,1-1,2.4h-.1a2.9,2.9,0,0,1-3.9.8L5.6,28.1a13.9,13.9,0,0,1-2.4-3.4,3.6,3.6,0,0,1-.4-.9.2.2,0,0,1,.1-.4h.4l.5.3a9.9,9.9,0,0,0,2.8,1.2,4,4,0,0,0,2.8-.7c.1-.1.2-.2.2-.3s.1-.7-.3-.7H8.2a6.9,6.9,0,0,1-3.2.3,3.3,3.3,0,0,1-2.8-1.7,2.4,2.4,0,0,1-.5-1.4A20,20,0,0,1,1.5,17c0-.1.1-.3.1-.4a.3.3,0,0,0,.1-.2l.3.4a5.7,5.7,0,0,0,2.3,2.3l1.6,1a5,5,0,0,0,2.7.7h.6c.1,0,.3,0,.3-.2a.8.8,0,0,0-.2-.4l-.4-.2a51.6,51.6,0,0,1-4.7-2.4,9.5,9.5,0,0,1-1.9-1.6,2.2,2.2,0,0,1-.4-1.8,21.8,21.8,0,0,1,.9-2.3l.5-1,.2-.3a.8.8,0,0,1,.1.4A9.7,9.7,0,0,0,5.4,14l.9,1a10.1,10.1,0,0,0,2.8,2.3h.5V17a1,1,0,0,0-.4-.5,5.7,5.7,0,0,0-1.1-1.1l-2-1.9a7.7,7.7,0,0,1-1.9-2.7,1.8,1.8,0,0,1,.3-2l1.8-2,.2-.2a.4.4,0,0,1,.1.3,5.5,5.5,0,0,0,.9,3.3l.7,1.3a32.4,32.4,0,0,0,2.4,3.1,3.3,3.3,0,0,0,1,.6l.5.2c.5,0,.7-.2.5-.7a3.8,3.8,0,0,0-.9-1.3,14.4,14.4,0,0,1-2.2-2.7A17.5,17.5,0,0,1,7.9,8a2.4,2.4,0,0,1,.5-2.9A3.3,3.3,0,0,1,9.9,4l.4-.2v.4a14.1,14.1,0,0,0,0,2.9,3.9,3.9,0,0,0,.6,1.5l1.7,2.5a2,2,0,0,0,.9.9c.1.2.4.2.6.2s.5-.3.5-.6a2.2,2.2,0,0,0-.5-1.2,16.2,16.2,0,0,1-1-1.8,25.9,25.9,0,0,1-1.4-2.9,5.7,5.7,0,0,1-.4-1.4A1.3,1.3,0,0,1,11.8,3,6.8,6.8,0,0,1,14,1.8l2.3-.3h1.1A1.6,1.6,0,0,0,18.9.2h.2ZM14.4,3.4h-.1v.9a7.6,7.6,0,0,0,1,3l.2.3c.2.1.3.1.4-.1V6.7a20.2,20.2,0,0,0-.9-3.3c-.1-.1-.2-.2-.2-.3s-.4-.1-.5.1Z"/>
        <g class="bbed4315-d303-4b01-8cbd-110c0d15961e">
          <path class="a6557f48-5ce3-4362-a57e-2a27ede3ae42" d="M13.5,24.1h.7a.1.1,0,0,1,.1-.1h.1s-.1,0,0-.1h.2a.1.1,0,0,0-.1-.1H15c.1,0,.1,0,.1-.1h0c.1,0,.1-.1,0-.1h.6a.1.1,0,0,1,.1-.1h2.7s-.1,0,0-.1h.1c.1-.1,0-.1.1-.1h.2a.1.1,0,0,1,.1-.1h.1c0,.1,0,.1-.1.1h-.1c0,.1,0,.1-.1.1h-.3c-.1,0,0,.1,0,.1h-.7a.1.1,0,0,1-.1.1H15.4a.1.1,0,0,1-.1.1H15a.1.1,0,0,0-.1.1h-.7c0,.1,0,.1-.1.1h0a.1.1,0,0,0-.1.1h-.5a.1.1,0,0,0-.1.1h.1Z"/>
          <path class="a6557f48-5ce3-4362-a57e-2a27ede3ae42" d="M21.8,2.6H20.7c-.1,0,0,0,0,.1h.2a.1.1,0,0,1,.1-.1h.8Z"/>
          <path class="a6557f48-5ce3-4362-a57e-2a27ede3ae42" d="M12.7,3.4h.1a.1.1,0,0,1,.1.1h.5c.1.1,0,.1.1.1h-.4a.1.1,0,0,1,.1-.1h-.3s.1-.1,0-.1h-.2Z"/>
          <path class="a6557f48-5ce3-4362-a57e-2a27ede3ae42" d="M25.4,6.3Z"/>
          <path class="a6557f48-5ce3-4362-a57e-2a27ede3ae42" d="M15.6,14.6H12.5c0-.1,0-.1-.1-.1H12a.1.1,0,0,0-.1-.1H10.8a.1.1,0,0,1,.1.1h4.7Z"/>
          <path class="a6557f48-5ce3-4362-a57e-2a27ede3ae42" d="M28.3,9.7h-.7c-.1.1,0,.1-.1.1H26.4a.1.1,0,0,1-.1.1h-.4c-.1,0-.1,0-.1.1H24a.1.1,0,0,0-.1.1H18.4a.1.1,0,0,0-.1.1h-3c-.1,0-.1.1-.1,0H15a.1.1,0,0,0-.1.1h1.4a.1.1,0,0,0,.1-.1h.1c0-.1,0-.1.1-.1h.3c0-.1,0,0,.1,0h.1a.1.1,0,0,1,.1.1h.1a.1.1,0,0,1,.1-.1h6.1a.1.1,0,0,0,.1-.1h.7a.1.1,0,0,0,.1-.1h3.9Z"/>
          <path class="a6557f48-5ce3-4362-a57e-2a27ede3ae42" d="M5.6,9.4h6.1a.1.1,0,0,0,.1.1H5.6Z"/>
          <path class="a6557f48-5ce3-4362-a57e-2a27ede3ae42" d="M29.5,14.6H28.3c-.1,0,0,.1-.1.1h-2c-.1.1-.1,0-.1.1H24a.1.1,0,0,0-.1.1H21.1c-.1,0-.1,0-.1.1h-.3c-.1.1-.1,0-.1,0H17a.1.1,0,0,0-.1.1h2.3c.1-.1.1,0,.1,0h2.4a.1.1,0,0,0,.1-.1h1.9c.1,0,.1,0,.1-.1H25c0-.1,0-.1.1-.1h.4s.1.1.1,0h1.2c.1,0,.1,0,.1-.1h.6a.1.1,0,0,1,.1-.1h.7c0-.1,0-.1.1-.1h1.1Z"/>
          <path class="a6557f48-5ce3-4362-a57e-2a27ede3ae42" d="M14,20.4h-.2c0-.1-.1,0-.1,0h-.9a.1.1,0,0,0-.1-.1h-.4a.1.1,0,0,1-.1-.1H10.7a.1.1,0,0,1-.1.1H9.1c0-.1,0-.1-.1,0H8.5c0-.1,0-.1-.1-.1H6.3c-.1,0-.1,0-.1-.1H3.3a.1.1,0,0,1-.1-.1H6.9c.1,0,.1,0,.1.1h.2a.1.1,0,0,1,.1.1h4.1c0,.1,0,0,.1,0h2.1s0,.1.1,0H14Z"/>
          <path class="a6557f48-5ce3-4362-a57e-2a27ede3ae42" d="M29.4,20.7H28.2a.1.1,0,0,1-.1.1H22.9c0,.1,0,.1-.1.1H15.9a.1.1,0,0,0-.1.1H15c-.1,0-.1,0-.1-.1h-.7a.1.1,0,0,1-.1-.1h4.7s0-.1.1,0H23c.1-.1.1,0,.1,0h2.3a.1.1,0,0,0,.1-.1h3.9Z"/>
          <path class="a6557f48-5ce3-4362-a57e-2a27ede3ae42" d="M2.6,19.9h.8a.1.1,0,0,0,.1.1h.1c.1,0,.1,0,.1.1H9.6c0,.1,0,0,.1,0h0a.1.1,0,0,0,.1.1h3.4a.1.1,0,0,0,.1-.1h-.2c-.1,0-.1-.1-.1,0H10a.1.1,0,0,0-.1.1H3.2a.1.1,0,0,1-.1-.1H3c-.1,0-.1,0-.1-.1H2.6Z"/>
          <path class="a6557f48-5ce3-4362-a57e-2a27ede3ae42" d="M27.4,25.8h-.6c-.1,0-.1,0-.1.1H24.9c0-.1,0-.1-.1-.1H17.3c-.1-.1-.1,0-.1-.1H15a.1.1,0,0,0-.1-.1h-.6c0-.1,0-.1-.1-.1H14a.1.1,0,0,0-.1-.1h3.5c.1,0,.1,0,.1.1h3.4a.1.1,0,0,1,.1.1h1.8c0,.1,0,.1.1.1h4.5Z"/>
          <path class="a6557f48-5ce3-4362-a57e-2a27ede3ae42" d="M5.1,25.4H8.5c.1,0,.1,0,.1-.1h4.8a.1.1,0,0,0-.1.1H10.6a.1.1,0,0,0-.1.1h-5c-.1-.1-.1,0-.1,0H5.1Z"/>
          <path class="a6557f48-5ce3-4362-a57e-2a27ede3ae42" d="M21.1,29.4H18.3a.1.1,0,0,0-.1-.1H15.3c.1,0,.1,0,.1.1h.5c0,.1,0,.1.1.1h.2c-.1.1,0,.1,0,.1h.1a.1.1,0,0,1-.1.1h1.9a.1.1,0,0,1,.1.1h2.9Z"/>
        </g>
      </g>
    </g>
  </g>
</svg>
