<svg id="f076af14-420a-4877-8950-e63a66cc3e48" data-name="&lt;Layer&gt;" xmlns="http://www.w3.org/2000/svg" viewBox="0 0 1039.4 1122.3">
  <g>
    <path d="M1002.2,406c-7.1-75.1-3.6-153-39-211.1S852.7,49.7,763.4,58.9s-119,60.9-153.7,103.4-59.6,78.7-77.2,88.6c-24.8,13.8-33.3-5-33.3-5C461.6,130.4,440.4,48.3,292.3,63.8S94,248.7,67.1,314.6,21,454.2,53.6,552.6,128,772.2,203.1,843.8s160.1,126.8,188.4,148,46.1,72.3,46.1,72.3,21.9-19.8,86.4-60.2S684.8,933,711.7,909s58.8-56.7,51.7-73-20.5-92.8-49.6-145.9S657.2,577.4,626,549.8s-60.2-73-1.4-63.8,123.2,84.3,149.5,150.9,7,168.6,7,168.6,59.2-48.1,92.1-97,91.4-136,70.9-139.6-40.4-18.4-93.5-61.6S713.1,410.2,693.3,394.7s-36.8-32.6-15.6-32.6,136.7,35.4,187.7,63,60.3,49.6,65.2,63.8,9.2,89.5,21.3,74.1S1009.2,481.1,1002.2,406ZM114.5,548.4c-34.7,5.7,25.5-46.1,71.6-71.6S303,399.6,393.6,393.2c0,0,29.3,1.1-5.6,22.7-18.9,11.7-54.6,14.2-119,39S149.2,542.7,114.5,548.4Zm304.3-5.7c-2.8,24.5-67.7,56.3-98.5,77.2s-51.1,42.5-59.1,48.6c-14.2,10.6-14.2,2.1-14.2,2.1,5.3-43.6,32.2-81.8,78.6-112.7S421.6,518.3,418.8,542.7Zm266,231.7c23,57.7,9.6,102-13.1,139.2,0,0-2.5,6.7-12.1,5.3s-19.1-40.4-43.5-96.7-61.3-109.1-69.4-142.1,10.9-34.7,41.4-29.4S661.8,716.6,684.8,774.4Z" fill="#3e6546"/>
    <path d="M868.1,350.8l-7.6-3.6-8.9-4.1-10.3-4.5c-3.7-1.6-7.5-3.3-11.5-4.9l-12.5-5.2-13.6-5.2c-4.7-1.7-9.4-3.6-14.4-5.2s-10-3.5-15.2-5.1l-7.8-2.5-8.1-2.2-8.1-2.3-8.3-1.9c-5.6-1.4-11.3-2.3-17-3.4-2.9-.5-5.7-.8-8.6-1.1l-8.7-1L673,296.2c-5.7-.3-11.3-.7-16.9-1.2l-8.3-.6-8.1-.8-15.9-1.7-15.1-2.2c-4.9-.6-9.6-1.6-14.2-2.4l-13.3-2.5-23.1-5.2-17.7-4.4-15.4-4-.6,2.1c.7-7.2,1.2-12.8,1.5-16.1l.7,2.3,3.5-1.1,9.8-3.3,7-2.4,8.2-2.9c5.9-2.1,12.5-4.6,19.6-7.4s14.8-5.9,22.9-9.3,16.5-7.1,25.3-11c17.4-7.8,35.9-16.5,54.4-25.1s36.9-17.2,54.8-23.9a207,207,0,0,1,26.3-8.1c2.1-.4,4.2-.9,6.3-1.2l3.2-.4,3.1-.2,11.9-.6,36.9-1.4,14-.3-14,.2-37,1.1-11.9.4-3.1.2-3.2.5c-2.1.2-4.2.7-6.4,1.1a205.6,205.6,0,0,0-26.4,7.8c-18,6.6-36.6,15.1-55.1,23.5s-37.1,17-54.6,24.6c-8.8,3.8-17.3,7.5-25.4,10.8s-15.7,6.4-22.9,9.1l-19.5,7.2-8.2,2.8-7,2.4-9.9,3.1-3.3,1.1.3-3a27.3,27.3,0,0,1-12,2.1c-6.3-.6-13.1-7-13.1-7,.1,3.5,0,9.3-.2,17.1l-11.2-3.1c-3.7-1.1-8.3-2.2-13.4-3.8l-17.2-5.5-4.9-1.6-4.9-1.7-10.4-3.8c-7.2-2.4-14.7-5.4-22.4-8.4s-15.6-6.3-23.7-9.7l-6-2.5-6-2.7-12.2-5.4c-8-3.6-16-7.4-23.9-11.1s-15.6-7.5-23-11.3-14.5-7.3-21.2-10.9-13.1-7-18.9-10.1l-15.9-8.8-12.1-7-10.5-6.2s3.7,2.4,10.4,6.4l12,7.1c4.7,2.7,9.9,5.8,15.7,9s12.1,6.8,18.8,10.4,13.8,7.4,21.1,11.3,15.1,7.7,22.8,11.7l23.9,11.5,12,5.6,6,2.7,6,2.6c8,3.5,15.9,7,23.6,10.1s15.2,6.2,22.3,8.8l10.4,3.9,5,1.8,4.8,1.7,17.3,5.8,13.4,4,11.7,3.5.5-2.1c-.3,10-.8,22.8-1.5,37.7l-.6-3.5-18.1,3.1-47.7,7.9c-19.8,3.2-42.9,6.7-67.6,10.5s-51.2,7.7-77.6,12.2S235,345.9,210.9,353a331.6,331.6,0,0,0-34.1,12.1c-5.2,2.3-10.3,4.7-15.2,7.1l-13.8,7.3-42.7,22.9-11.9,6.5-3.1,1.7-1.1.6,1.1-.6,3.1-1.7,12.1-6.2,43-22.2,13.9-7.1c4.9-2.3,10-4.6,15.3-6.7a283.8,283.8,0,0,1,34.1-11.5c24-6.7,50.3-11.5,76.7-15.6s52.8-7.6,77.6-10.9l67.9-9.4c19.8-2.8,36.3-5.3,47.9-7.1l17.4-2.7c-1.5,31.6-3.7,71.9-6.2,114l-7.8,3.3-18.3,7.9-24,10.1-59.9,25.1c-11,4.6-22.3,9.4-33.8,14.5l-8.6,3.7-8.6,4-8.6,3.9-8.6,4.1-8.6,4.1-8.6,4.2-8.4,4.3-8.3,4.4c-5.6,2.9-10.9,6-16.2,9.1-1.4.7-2.7,1.5-4,2.3l-3.9,2.4-7.6,4.7c-2.6,1.6-5,3.3-7.4,4.9l-7.2,4.9c-4.7,3.4-9.1,6.8-13.5,10.1l-12.2,10.1c-2,1.6-3.9,3.3-5.9,4.8l-5.5,4.7c-7.2,6.3-13.8,12-19.4,17.4l-4.1,3.8-3.7,3.7-6.4,6.6c-1.8,2-3.4,4-4.8,5.6a17.7,17.7,0,0,0-1.9,2.3,17.3,17.3,0,0,1-1.5,2,21.4,21.4,0,0,0-2.3,3.9,17.6,17.6,0,0,1,2.4-3.8,20.8,20.8,0,0,1,1.5-2,12.8,12.8,0,0,1,1.9-2.3c1.4-1.6,3-3.5,4.9-5.5l6.5-6.6c1.1-1.2,2.4-2.3,3.8-3.6l4.1-3.7c5.6-5.4,12.3-10.9,19.5-17.1,1.8-1.5,3.7-3.1,5.7-4.6l5.9-4.7,12.4-9.9c4.4-3.2,8.8-6.7,13.5-9.9l7.2-4.8c2.4-1.6,4.8-3.3,7.4-4.8l7.7-4.6,3.9-2.3,4-2.2c5.3-3,10.7-6.1,16.3-8.8,2.7-1.5,5.5-2.9,8.3-4.3s5.7-2.8,8.5-4.2l8.5-4.1,8.7-4,8.6-3.9,8.7-3.8,8.6-3.8,8.7-3.7c11.5-4.8,22.8-9.5,33.8-13.9l60.4-24.3,24-9.7,18.6-7.7,5.2-2.2c-3.7,64-8,131.2-11,177.6-.7,9.8-1.3,20.6-2,31.9l-5.4,4.2c-2.3,1.8-5.2,4-8.3,6.8s-6.8,5.7-10.6,9.1l-12,11.1-13.1,12.8c-4.4,4.6-9.1,9.2-13.7,14.1s-9.2,9.7-13.7,14.7-9.2,10-13.5,15.1l-6.6,7.4-6.3,7.3-11.8,13.9L354,768.3,345.3,779c-2.5,3.2-4.8,6-6.6,8.4-3.7,4.6-5.7,7.3-5.7,7.3l5.8-7.2,6.8-8.2,8.9-10.6,10.7-12.4,12.1-13.7,6.5-7.2,6.7-7.3c4.4-4.9,9.1-9.8,13.7-14.7s9.4-9.7,14.1-14.5,9.3-9.2,13.8-13.7l13.3-12.5,12.2-10.8c3.8-3.3,7.4-6.2,10.6-8.8a103.1,103.1,0,0,1,8.4-6.5l2.5-2c-6.8,113.1-14.7,281.4-9,239.6,4.7-34.5,23.7-245.7,34.7-374.4l8.2,7.3,13.8,12.5c5.3,4.8,11.3,10.3,17.7,16.4s13.4,12.7,20.7,19.7l11,11c3.7,3.9,7.6,7.7,11.4,11.7s7.7,8.1,11.5,12.3c1.9,2.2,3.8,4.3,5.8,6.4s3.7,4.4,5.6,6.5l2.9,3.3,2.8,3.4c1.9,2.2,3.7,4.5,5.6,6.8,3.6,4.6,7.4,9.2,10.8,13.9s6.9,9.6,10.3,14.4,6.4,9.8,9.3,14.8l2.2,3.8,2.1,3.7,4.1,7.6,4.1,7.5c1.3,2.4,2.5,4.9,3.8,7.4l7.4,14.5c2.3,4.8,4.6,9.5,6.9,14,4.5,9.1,8.5,17.9,12.3,25.9s7.1,15.4,10.2,21.9,5.5,12.3,7.6,17l6.6,14.9s-2.3-5.5-6.4-15l-7.5-17c-2.9-6.6-6.2-14.1-9.9-22.1s-7.6-16.8-12-26l-6.8-14.1c-2.3-4.8-4.8-9.7-7.2-14.6l-3.8-7.5c-1.3-2.5-2.6-5-4-7.5s-2.6-5.1-4-7.6-1.4-2.6-2-3.9-1.5-2.5-2.2-3.7c-2.9-5.1-6.1-10.1-9.2-15.1s-6.6-9.8-10.2-14.5-7.1-9.5-10.7-14.2l-5.5-6.9-2.8-3.4-2.8-3.3-5.7-6.6-5.7-6.5c-3.8-4.3-7.6-8.4-11.4-12.5s-7.6-7.9-11.2-11.8l-11-11.2c-7.2-7.2-14.1-13.9-20.5-20s-12.3-11.7-17.6-16.7l-13.7-12.6-10.4-9.5c3.7-43.5,6.5-76.8,7.4-89.4,1.2-17.5,3.3-42.7,5.4-68.1.9,1,2.1,2.1,3.3,3.3l5.8,5.4a189.9,189.9,0,0,0,16.7,13c6.6,4.7,14.2,9.7,22.7,14.9,16.9,10.4,37,21.7,58.2,34.4s43.4,26.9,64.6,42.4c10.7,7.8,21.1,15.9,31,24.2s19.6,16.6,28.8,24.9c18.2,16.6,34.5,33,47.7,47.7a365.8,365.8,0,0,1,29.9,37.2c3.3,4.7,5.7,8.6,7.3,11.3s1.3,2.4,1.6,3.1l.4.8a.4.4,0,0,0,.1.3.4.4,0,0,1-.1-.3l-.4-.8a23.3,23.3,0,0,0-1.6-3.2c-1.5-2.7-3.8-6.6-7-11.4a381.8,381.8,0,0,0-29.3-37.7A671.6,671.6,0,0,0,750.7,508c-9-8.5-18.6-17.1-28.4-25.5s-20.2-16.8-30.7-24.8c-21.1-16-43.2-30.6-64.3-43.7s-40.9-24.7-57.5-35.4c-8.3-5.3-15.8-10.3-22.2-15a202.1,202.1,0,0,1-15.9-12.9l-5.5-5.2-3.7-3.9-3.2-3.6-.5.5c2-23.9,4.1-47,5.5-63.1l15.1,3.7c5,1.2,10.9,2.8,17.8,4.3l23.3,4.9,13.4,2.4c4.6.8,9.4,1.7,14.3,2.2l15.3,2.1,15.9,1.5,8.2.7,8.3.5,17,1.1,34.5,1.9,8.6.9a80.8,80.8,0,0,1,8.6,1.1c5.6.9,11.3,1.7,16.8,3.1l8.3,1.8,8.1,2.1,8.1,2.2,7.8,2.4c5.2,1.5,10.3,3.2,15.2,4.9s9.8,3.3,14.5,5,9.2,3.4,13.6,5.1,8.5,3.4,12.6,5l11.5,4.7,10.3,4.5,9,4,7.7,3.5c9.2,4.2,14.3,6.8,14.3,6.8S877.3,355.2,868.1,350.8Z" fill="#e2ebce"/>
  </g>
</svg>
