<svg id="e2a224fa-d81d-40ad-9b1b-688f607e146d" data-name="Layer 1" xmlns="http://www.w3.org/2000/svg" viewBox="0 0 32 32">
  <defs>
    <style>
      .a28150cc-23b0-41ff-ab0d-9de1ac7c8bd5 {
        fill: #1129c2;
      }

      .b6617edb-9158-4968-8cad-6347fb12947b {
        fill: #fcfcfc;
      }

      .b535164e-0001-41ab-bab4-245044643c9d {
        opacity: 0.5;
      }

      .a897c9f8-0529-477b-9705-d54589677845 {
        fill: #91c69e;
      }
    </style>
  </defs>
  <circle class="a28150cc-23b0-41ff-ab0d-9de1ac7c8bd5" cx="16" cy="16" r="16.6"/>
  <path class="b6617edb-9158-4968-8cad-6347fb12947b" d="M13.9,6.1c0,.2-.1.3-.1.4a9.8,9.8,0,0,0,.5,6.1,1.6,1.6,0,0,0,.4.7h.1a1.9,1.9,0,0,0-.1-.8l-.6-2.8A4,4,0,0,1,14,7.7a2.4,2.4,0,0,1,2.5-2.1h3.1a1.5,1.5,0,0,0,1.1-.4H21a3.9,3.9,0,0,0,1.5,1.6l.9.9a1.8,1.8,0,0,1,.1,2.2,2.9,2.9,0,0,1-1,1.2l-1.3.9-1.5,1-.2.3c.1.1.3,0,.4,0l1.5-.9L24.3,10l.4-.3a.3.3,0,0,0,.1.2,9.3,9.3,0,0,1,.4,2.3,2.9,2.9,0,0,1-1.5,3,14,14,0,0,1-4,1.6l-1,.3c-.2.1-.3.1-.3.3h.8a12.6,12.6,0,0,0,3.7-1.3l1.4-.9,1.3-.7a.6.6,0,0,1,.1.4,5.3,5.3,0,0,1-.2,2.2l-.3,1.1a3.3,3.3,0,0,1-1,1.4l-.4.2-.9.2a12.2,12.2,0,0,1-2.7-.1H17.9l.3.2h3.9l2.3-.2h.3c.1.1,0,.2,0,.3s-.9,1.7-1.5,2.5l-.5.4a1.4,1.4,0,0,1-1.4.2l-1.7-.5H19a.5.5,0,0,0,.4.3l1.7.7.8.2c.1,0,.3,0,.3.2l-.4.5A8.1,8.1,0,0,1,19,26.6l-1.3.3a3.4,3.4,0,0,1-2.4-.4l-1-.7a2,2,0,0,1-.7-2.4A10.3,10.3,0,0,1,14,22v-.3c-.1-.3-.3-.4-.6-.2l-.2.3L12,23.6a1.4,1.4,0,0,1-1,.5,5,5,0,0,1-2.1-.5A4.1,4.1,0,0,1,7.3,22a7.4,7.4,0,0,1-1-4.3,4.8,4.8,0,0,1,.4-2,2.3,2.3,0,0,1,.7-1l.2.3a8.2,8.2,0,0,0,2.5,3,1,1,0,0,0,.8.3c-.1-.1-.2-.2-.2-.3L9.6,16.8,8.5,15.6a2.7,2.7,0,0,1-.6-2.7A6.7,6.7,0,0,1,9.7,9.6h.2v.3a7.8,7.8,0,0,0,.4,2.1,2.4,2.4,0,0,0,.2.8,8.6,8.6,0,0,0,1.4,2.9l.4.4h.3a.7.7,0,0,0-.1-.6,3.8,3.8,0,0,0-.6-1.3,10.8,10.8,0,0,1-1.2-2.4,4.7,4.7,0,0,1-.4-2.3,2.7,2.7,0,0,1,1.1-2.2,5.7,5.7,0,0,1,2.3-1.2ZM6.8,18.2A2.7,2.7,0,0,0,8,20.3a2.3,2.3,0,0,0,2.1.3.2.2,0,0,0-.2-.2l-1-.5a3.2,3.2,0,0,1-1.3-1l-.5-.5Zm9.1,1.7a1.1,1.1,0,0,0,.8,0l.2-.3c.1-.1-.1-.2-.2-.2a.7.7,0,0,0-.9,0c-.2.1-.1.3.1.5Zm1,2.7h.8c.1-.1.1-.2,0-.4a1,1,0,0,0-.8-.4h-.2A.5.5,0,0,0,16.9,22.6ZM13.7,18h.1c.3.1.4-.1.4-.4s-.2-.5-.5-.5-.3-.1-.4.2S13.4,17.8,13.7,18Zm4.9,8.1c-.3-.3-.7-.3-1-.5l-.9-.7a1.2,1.2,0,0,0,.9,1.1A1.2,1.2,0,0,0,18.6,26.1Zm-6-6.8c0-.1-.2-.3-.3-.4l-.5-.2h-.3a.6.6,0,0,0,.1.4,1,1,0,0,0,.9.2h.1Zm4.2-2.1h.7l.2-.2a.2.2,0,0,0-.2-.2.6.6,0,0,0-.6,0c-.3,0-.3.3-.1.4Zm-1.7-2c.2.1.3,0,.3-.1s-.1-.5-.2-.5h-.3A.5.5,0,0,0,15.1,15.2ZM18,14h0v.2h.3c0-.1.1-.1.1-.2l.2-.2-.2-.3C18.4,13.6,18,13.8,18,14Zm-1.1-2.6h-.1c-.2.2-.1.5,0,.7s.3.1.3-.1S17.1,11.4,16.9,11.4Z"/>
  <g class="b535164e-0001-41ab-bab4-245044643c9d">
    <path class="a897c9f8-0529-477b-9705-d54589677845" d="M13.7,21.3h.5a.1.1,0,0,0,.1-.1h.8a.1.1,0,0,1,.1-.1h4.6a.1.1,0,0,1-.1.1H15.5a.1.1,0,0,0-.1.1H13.8c-.1,0-.1,0-.1.1h0Z"/>
    <path class="a897c9f8-0529-477b-9705-d54589677845" d="M15.9,6.7Z"/>
    <path class="a897c9f8-0529-477b-9705-d54589677845" d="M22.8,7.9Z"/>
    <path class="a897c9f8-0529-477b-9705-d54589677845" d="M15.9,16.4H13.6a.1.1,0,0,1-.1-.1H12.1a.1.1,0,0,0-.1-.1h-.1a.1.1,0,0,0-.1.1h0c.1.1,0,.1,0,.1h3.4a.1.1,0,0,1,.1.1h.6Z"/>
    <path class="a897c9f8-0529-477b-9705-d54589677845" d="M16.2,15.6h2.5s.1.1.1,0h5.4c.1,0,.1,0,.1-.1h-6s-.1-.1-.1,0h-2Z"/>
    <path class="a897c9f8-0529-477b-9705-d54589677845" d="M14.7,18.9h-.2c0-.1,0-.1-.1-.1H12.9a.1.1,0,0,0-.1-.1h-.2a.1.1,0,0,0-.1-.1h-.8c-.1,0-.1,0-.1-.1H10.5c0-.1,0-.1-.1-.1H8.9s.1,0,0,.1h5.8Z"/>
    <path class="a897c9f8-0529-477b-9705-d54589677845" d="M24.5,17.6H23.4a.1.1,0,0,0-.1.1H15.4a.1.1,0,0,1-.1-.1h9c.1,0,.1,0,.1-.1h.1Z"/>
    <path class="a897c9f8-0529-477b-9705-d54589677845" d="M7.1,16.8h6.7c-.1.1-.1,0-.1,0h0c0-.1-.1,0-.1,0H7.1Z"/>
    <path class="a897c9f8-0529-477b-9705-d54589677845" d="M23.1,21.8H19.9c0-.1,0-.1-.1-.1h3.3Z"/>
    <path class="a897c9f8-0529-477b-9705-d54589677845" d="M16.1,25.4h-.7c-.1,0,0,0,0-.1h-1a.1.1,0,0,1-.1-.1h-.1a.1.1,0,0,0-.1.1h1.2a.1.1,0,0,0-.1.1h.1c0,.1,0,.1.1.1h.7Z"/>
    <path class="a897c9f8-0529-477b-9705-d54589677845" d="M8.4,21.5h0a.1.1,0,0,1,.1.1H8.4Z"/>
  </g>
</svg>
