<svg id="ac16aee7-ac8b-427a-929d-aeb0022505b7" data-name="Layer 1" xmlns="http://www.w3.org/2000/svg" viewBox="0 0 32 32">
  <defs>
    <style>
      .e53fec3c-5d45-42f6-a57d-8f74bfc499bf {
        fill: #1129c2;
      }

      .a14726b9-66dc-4012-bc7c-8bb8746c581e {
        fill: #fff;
      }

      .a79e21b7-55a5-41c4-8464-dd3b1ec7b330 {
        opacity: 0.22;
      }
    </style>
  </defs>
  <circle class="e53fec3c-5d45-42f6-a57d-8f74bfc499bf" cx="16" cy="16" r="16.6"/>
  <g>
    <path class="a14726b9-66dc-4012-bc7c-8bb8746c581e" d="M4.9,20.3a5.8,5.8,0,0,1-.5-2.9,3.4,3.4,0,0,1,1.3-2.5,5.5,5.5,0,0,1,2.4-1.2l3.1-.5,1.6-.2.6-.4h-1a9.1,9.1,0,0,0-3.6.6l-.9.3a6.1,6.1,0,0,0-2.1,1.1H5.5v-.2a7.2,7.2,0,0,1,1.7-3.9,3.5,3.5,0,0,1,2.9-1.2l1.9.2,1.8.2h.5l-.8-.4a9.5,9.5,0,0,0-4.4-.4H8.6a3.4,3.4,0,0,1,.5-1.4,8,8,0,0,1,1.5-1.7,9.7,9.7,0,0,1,4.6-1.8,3.9,3.9,0,0,1,2.6.4,4.4,4.4,0,0,1,1.8,1.5,1.2,1.2,0,0,1,.2,1.3A20.9,20.9,0,0,1,19,9.4c0,.1-.1.3-.1.4s.2.5.5.4l.3-.3,1.1-1.2a2.2,2.2,0,0,1,2.6-.9l1.3.4a3.9,3.9,0,0,1,2,2,6.9,6.9,0,0,1,.5,1.3,9.4,9.4,0,0,1,.4,3.7l-.2.8-.5-.2-.6-.5-1.8-1.2-.6-.2.5.5L26,15.6a1.9,1.9,0,0,1,.8,1.5,2,2,0,0,0-.1.7,27.1,27.1,0,0,1-1.3,3c0,.1-.1.2-.3.2l-.2-.2a15.9,15.9,0,0,0-1.3-2.2l-.7-1.1a11.5,11.5,0,0,1-1.4-1.7l-.7-.8h-.3a.8.8,0,0,0,.2.5A10.1,10.1,0,0,0,22,17l1.9,2.4.4,1a4.3,4.3,0,0,1,.1.5,4.4,4.4,0,0,1-.7,1.9l-.7,1a6.2,6.2,0,0,1-2,1.6.5.5,0,0,1-.4.2,11.1,11.1,0,0,1-.2-1.7c-.1-.6-.1-1.2-.2-1.9A15.5,15.5,0,0,0,19,17.8l-.3-.5-.3-.2a.6.6,0,0,0-.1.4c.1.4.3.8.4,1.2a15.4,15.4,0,0,1,1.2,4.8,3.6,3.6,0,0,1-1.7,3.3,6.2,6.2,0,0,1-2.5,1.1c0,.1-.1,0-.2.1a1.3,1.3,0,0,1,.1-.6c0-1.3.1-2.7.1-4.1a12.3,12.3,0,0,0-.2-2,.8.8,0,0,0-.2-.5.6.6,0,0,0-.2.5c0,.7.1,1.3.1,2v1.8a3.9,3.9,0,0,1-.4,1.8,2.2,2.2,0,0,1-2.1,1.3,5.8,5.8,0,0,1-1.4-.3,6.9,6.9,0,0,0-2.5-.3H8.6v-.2a2,2,0,0,0-.4-1.3l-.6-1L6.3,23.2a2.7,2.7,0,0,1,.3-3.7,5.7,5.7,0,0,1,1.8-1.2l2.9-1.2.8-.5a.3.3,0,0,0,.1-.2,1.4,1.4,0,0,0-.9.1,12,12,0,0,0-6,3.6l-.3.4ZM11.8,6.1h.8l1.8.6,1.1.6c.1,0,.2.1.3,0S15,5.9,14.2,5.6s-2.3-.2-2.7.3Zm7.2,7c-.3,0-.6,0-.5.4a1.6,1.6,0,0,0,.6.8h.4c0-.1.1-.3,0-.4a.8.8,0,0,0-.5-.7Zm2.5-.6v.2c.2.3.7.6,1,.5s.3-.1.3-.2,0-.3-.1-.3l-.3-.2-.3-.2C22,12.2,21.6,12.3,21.5,12.5Zm-6.6,0c-.2.2-.2.3,0,.5a1,1,0,0,0,.9.1c.3-.2.3-.4.1-.6h-.1A.7.7,0,0,0,14.9,12.5Zm10.9-1.9a1.8,1.8,0,0,0-1.6-.1l1.2.4a2.9,2.9,0,0,0,1.1.6C26.5,11.2,26.1,10.8,25.8,10.6Zm-9.5-.2h0a1.1,1.1,0,0,0-.8-.7h-.4c-.1.2,0,.3.1.4a.5.5,0,0,0,.5.3c.1,0,.5.1.6-.1Zm.8,5.3c-.2,0-.4.2-.3.4a.9.9,0,0,0,.4.6.2.2,0,0,0,.3,0,.4.4,0,0,0,.1-.3.5.5,0,0,0-.3-.5h-.1A.1.1,0,0,0,17.1,15.7Zm-3.6.1c0,.1,0,.2.1.2a.9.9,0,0,0,.7-.1.2.2,0,0,0-.1-.4A.5.5,0,0,0,13.5,15.8ZM15,19.7a.2.2,0,0,0,.3,0l.2-.3v-.3a.2.2,0,0,0-.2-.2h-.2a.1.1,0,0,0-.1.1h-.1A.8.8,0,0,0,15,19.7Zm-2.3-.3c.1-.1.1-.3-.1-.3s-.7.1-.7.5h0C12.1,19.9,12.6,19.5,12.7,19.4Z"/>
    <g class="a79e21b7-55a5-41c4-8464-dd3b1ec7b330">
      <path class="e53fec3c-5d45-42f6-a57d-8f74bfc499bf" d="M18.9,10.2h-.8a.1.1,0,0,1-.1.1H15.5c0,.1,0,.1-.1.1H13.2a.1.1,0,0,1-.1.1h-.2a.1.1,0,0,1-.1.1h-.3a.1.1,0,0,1-.1.1H11.3c-.1,0-.1,0-.1.1h-.6a.1.1,0,0,0-.1.1H9.3a.1.1,0,0,1-.1.1h.4c.1,0,.1,0,.1-.1h.2c.1,0,.1,0,.1-.1h.9c0-.1,0-.1.1-.1h1.8c0-.1,0-.1.1-.1h0c.1,0,.1,0,.1-.1h.6c.1,0,0-.1.1-.1h1.4a.1.1,0,0,0,.1-.1h.6c0-.1,0-.1.1-.1h3Z"/>
      <path class="e53fec3c-5d45-42f6-a57d-8f74bfc499bf" d="M6.9,21.9H6.8v-.2h4.7c-.1,0-.1,0-.1-.1H6.8v-.2h.2Z"/>
      <path class="e53fec3c-5d45-42f6-a57d-8f74bfc499bf" d="M12.6,27.5h-.2c0,.1.1,0,0,.1h.2Z"/>
      <path class="e53fec3c-5d45-42f6-a57d-8f74bfc499bf" d="M15.8,15.5H12.6c-.1,0-.1-.1-.1,0H5.3c0-.1,0-.1.1-.1h0a.1.1,0,0,1,.1-.1h.4c0-.1,0-.1.1-.1h4.1c0-.1,0,0,.1,0h5.6Z"/>
      <path class="e53fec3c-5d45-42f6-a57d-8f74bfc499bf" d="M15.3,16.3h1.8a.1.1,0,0,0,.1.1h.3c0,.1.1.1,0,.1h.1a.1.1,0,0,1-.1.1h-.1c-.1,0,0,0,0-.1H15.3Z"/>
      <path class="e53fec3c-5d45-42f6-a57d-8f74bfc499bf" d="M17.4,12.7H8.1a.1.1,0,0,1,.1-.1h9.2Z"/>
      <path class="e53fec3c-5d45-42f6-a57d-8f74bfc499bf" d="M22.6,22.6h-.5c-.1-.1,0-.1-.1-.1H16.9a.1.1,0,0,1-.1-.1h5c0,.1,0,.1.1.1H22c0,.1,0,.1.1.1h.6a.1.1,0,0,0-.1.1Z"/>
      <path class="e53fec3c-5d45-42f6-a57d-8f74bfc499bf" d="M10.3,7.1h5.6a.1.1,0,0,0-.1-.1H12.9a.1.1,0,0,0-.1.1H10.6c0,.1,0,.1-.1.1h-.2Z"/>
      <path class="e53fec3c-5d45-42f6-a57d-8f74bfc499bf" d="M25.5,18.5H23.6c-.1,0-.1,0-.1-.1h-.1c0-.1,0-.1-.1-.1H22.1c0-.1-.1,0-.1-.1h3.5Z"/>
      <path class="e53fec3c-5d45-42f6-a57d-8f74bfc499bf" d="M24.3,9.7Z"/>
      <path class="e53fec3c-5d45-42f6-a57d-8f74bfc499bf" d="M15.5,5.2h2c.1,0,.1.1,0,.1h-.2a.1.1,0,0,1-.1-.1H15.5Z"/>
    </g>
  </g>
</svg>
