<svg id="b7cebf09-4fb3-4a79-b6c1-afb195edaf59" data-name="&lt;Layer&gt;" xmlns="http://www.w3.org/2000/svg" viewBox="0 0 1039.4 1122.3">
  <g>
    <path d="M582.1,237.3c-10-106-4.6-190.5-109.8-206.7S340.9,53.7,277.1,79s-67.6-7.6-139.8,85.3S52.8,324.9,45.1,372.5s-3.8,96.8-3.8,96.8,65.3-60.7,114.5-106.8,112.9-73,168.2-65.3,86,19.2,59.2,30-186.7,44.5-245.9,83.7S24.4,486.2,31.3,546.1s20,92.2,39.2,107.6,39.2,25.4,39.2,22.3-29.2-33.1,61.4-110.6S315.5,436.3,355.5,433.2s92.2-.8,74.5,20.8S280.2,535.4,228.7,586.9,123.5,696,107.4,714.4,69.7,782,131.9,849.6s130.6,136,166.7,172.9,90.7,72.9,90.7,72.9,35.3-24.5,149-60.6,117.6-48.4,126.8-86.1,10-126-18.4-200.5S569.8,577.6,609,593.8s80.7,129,106,184.4,9.3,153.6,9.3,153.6,50.7-23,132.9-128.3,133.6-189.8,145.2-325.7,11.1-184.4-35.4-222.1c-40.9-33.1-78.7-56.4-73.8-70.5,9.4-27-18.4-113.1-129-92.3s-139.8,56.8-149,89.1S596,244.2,596,244.2Z" fill="#8faf97"/>
    <path d="M593.6,265.6c2.5.7,6.1,2.1,10.9,3.3s10.6,2.7,17.3,4.1,14.4,2.4,22.8,3.1l6.4.6,6.7.3,6.9.3h7.2c9.6,0,19.8-.3,30.3-.9s21.3-1.4,32.3-2.3l16.5-1.4c5.6-.4,11.2-1,16.7-1.2l8.4-.4h8.4c5.5-.2,11.1.1,16.6.2s10.9.5,16.3.7l15.9,1.2,15.4,1.3,14.7,1.6,26.9,3.3c16.7,2.2,30.5,4.4,40.2,6l15.1,2.6s-5.5-1.1-15.1-2.7-23.5-4-40.1-6.4c-8.3-1.2-17.3-2.4-26.9-3.5l-14.7-1.7-15.4-1.5-15.9-1.3c-5.4-.2-10.9-.7-16.4-.8s-11-.5-16.6-.4H776l-8.4.4c-5.6.2-11.2.7-16.8,1l-16.6,1.3c-11,.8-21.8,1.5-32.2,2s-20.6.7-30.2.6l-7.1-.2-6.9-.2-6.6-.5-6.4-.6a208.4,208.4,0,0,1-22.5-3.3c-6.6-1.4-12.4-2.7-17-4.1s-8.3-2.6-10.8-3.4l-3.8-1.3-.5,1.5c1.9-6,3.3-10.8,4.3-14l1.3-.2,3.9-1.3,4.9-1.6,2.7-1,2.9-1.2,6.3-2.6,3.4-1.5,3.5-1.6,15.3-7.5c5.4-2.7,10.9-5.9,16.7-9l8.8-4.8c2.9-1.6,5.8-3.5,8.8-5.2l18-10.7c6.1-3.6,11.9-7.4,17.7-11.1l17.1-11c5.5-3.6,10.9-6.9,15.9-10.3l14-9.6,29-19.7-29.1,19.5L741.5,168c-5,3.4-10.4,6.7-16,10.2L708.4,189c-5.8,3.7-11.7,7.5-17.8,11l-18,10.6c-3,1.7-5.9,3.5-8.9,5.1l-8.8,4.8c-5.8,3.1-11.4,6.2-16.7,8.9l-15.3,7.3-3.5,1.6-3.4,1.4-6.3,2.6-2.9,1.1a14.8,14.8,0,0,1-2.7,1l-4.7,1.6-3.9,1.2H595c.6-2,1-3.1,1-3.1l-13.9-6.9-2.6,6.6-7.7-3.2-15.1-6.3c-5.8-2.6-12.3-5.4-19.3-8.7l-11-5.1L514.7,215l-25.1-12.5-54.1-28c-9.3-4.7-18.6-9.3-27.8-13.7l-7-3.2-6.9-3c-4.6-2.1-9.1-3.9-13.7-5.7-9.1-3.4-18.1-6.4-26.7-8.7s-16.8-4.4-24.4-6a351.8,351.8,0,0,0-37.1-5.8c-9.1-1-14.3-1.2-14.3-1.2s5.2.2,14.3,1.3a371.1,371.1,0,0,1,37,6.2c7.6,1.6,15.8,3.7,24.3,6.2s17.5,5.4,26.6,8.9c4.4,1.8,9,3.7,13.6,5.8l6.8,3.1,6.9,3.3c9.2,4.4,18.5,9.1,27.6,13.9l53.9,28.5,25,12.7,11.7,5.8,11,5.2c7,3.3,13.5,6.2,19.3,8.8l15,6.6,7.8,3.2q-4.5,11.9-9.3,25.5l-17.7-.9-24.5-1-31.7-1.1-18.1-.4-19.4-.4-20.5-.2H415.8l-22.1.2-22.7.4-23,.7c-7.7.3-15.5.6-23.2,1.1-15.5.7-31,1.9-46.2,3.3s-30.1,3.4-44.4,6-27.8,7.1-40.3,11.8-24,9.9-34.4,14.9c-20.9,10.2-37.7,20-49.3,27s-18,11.4-18,11.4,6.5-4.3,18.2-11.2,28.5-16.4,49.5-26.3c10.5-4.9,22.1-9.9,34.5-14.5s25.9-8.7,40.1-11.2,29.2-4,44.4-5.4,30.6-2.2,46-2.8c7.8-.4,15.5-.5,23.2-.7l23-.5h44.7l21.4.4,20.4.4,19.4.6,18.1.7c11.5.5,22.2.9,31.6,1.5l24.4,1.3,15.9,1c-7.9,22.7-16,48.4-24.1,74.7l-16.9.9-5.2.3-5.7.5-12.9,1.2-7,.7-7.5,1-16.1,2.1-17.4,2.8-4.6.8-4.6.9-9.4,1.8-9.6,2-9.8,2.3-10.1,2.4L396,375.3l-10.3,2.8c-3.5.9-6.9,2-10.4,3l-10.5,3.3c-3.5,1-7,2.3-10.5,3.5l-10.6,3.6-10.5,3.9-10.5,4-10.5,4.2c-7,2.8-13.8,5.9-20.7,8.9-3.5,1.5-6.8,3.2-10.2,4.8L271.2,422c-13.2,6.7-26.2,13.4-38.4,20.5s-23.9,14.1-34.7,21.1-20.9,14.1-30,20.8-17.3,13-24.3,18.8-13.2,11-18.1,15.4c-9.8,8.8-15,14.2-15,14.2s5.2-5.4,15.1-14c5-4.4,11-9.6,18.2-15.3s15.4-11.9,24.5-18.5,19.3-13.5,30.2-20.5,22.5-14,34.8-20.8,25.3-13.5,38.5-20l10.1-4.6,10.2-4.7c6.9-2.9,13.8-6,20.8-8.6l10.4-4.2c3.5-1.4,7.1-2.6,10.6-3.9l10.5-3.8,10.6-3.4c3.5-1.2,6.9-2.4,10.5-3.4l10.4-3.1c3.5-1,6.9-2.1,10.4-3l10.3-2.7,10.1-2.6,10-2.2,9.8-2.2,9.6-1.9,9.4-1.8,4.6-.8,4.5-.7,17.3-2.7,16.1-1.9,7.4-.9,7-.6,12.8-1.1,5.6-.4,5.2-.3,15.3-.6c-13.8,45.9-27.1,93.6-37,131.7L494,492.9c-2.6.9-5.5,1.8-8.6,3l-10,3.7L464,503.9,451.5,509l-6.7,2.7-6.8,3-14.4,6.4-14.9,7.2-3.9,1.8-3.8,2-7.8,4c-2.5,1.4-5.2,2.7-7.8,4.2l-7.9,4.3-8,4.5-7.9,4.7-7.9,4.8-7.9,5-7.9,5.1-7.8,5.3c-10.3,7-20.3,14.6-30,22.2-2.5,1.9-4.8,3.9-7.2,5.8l-7,5.9c-4.5,4-9.1,7.8-13.3,11.9-8.7,7.9-16.6,16-24,23.9s-14,15.6-19.8,22.9-11,14.3-15.2,20.7-7.8,11.9-10.5,16.7a144.5,144.5,0,0,0-7.9,15.3,155.9,155.9,0,0,1,8-15.2c2.8-4.7,6.4-10.3,10.7-16.6s9.6-13.1,15.4-20.4,12.7-14.9,20-22.7,15.5-15.8,24.3-23.5c4.2-4,8.8-7.8,13.4-11.7l7-5.8c2.4-1.9,4.8-3.9,7.2-5.7,9.8-7.5,19.8-14.9,30.2-21.8l7.8-5.2,7.9-4.9,7.9-5,8-4.6,8-4.6,7.9-4.4,7.9-4.3,7.9-4,7.8-3.9,3.8-1.9,3.8-1.8,15-7,14.4-6.1,6.8-2.9,6.7-2.7,12.5-4.9,11.3-4.1,10-3.6c3.1-1.2,6-2,8.6-2.9l7.7-2.5c-4.7,18.1-8.6,33.9-11.4,45.9-5.2,22.6-13.2,57.9-22.6,98.8l-7.3,2.8c-3.8,1.5-8.4,3.7-13.6,6-2.6,1.1-5.3,2.6-8.1,4s-5.9,2.9-8.9,4.7l-9.6,5.4c-3.1,2.1-6.5,4.1-9.9,6.3l-10.1,7c-3.5,2.4-6.8,5.1-10.3,7.8s-6.9,5.6-10.4,8.4-6.7,6.1-10.2,9.1l-9.9,9.7-4.8,5q-2.5,2.6-4.8,5.1c-3.1,3.5-6.3,6.9-9.2,10.5l-4.5,5.4-4.2,5.4c-2.9,3.6-5.5,7.3-8.2,10.9s-5.2,7.3-7.7,10.9-4.8,7.2-7,10.8l-3.3,5.2c-1,1.8-2,3.6-3.1,5.3-2,3.4-3.9,6.8-5.7,10.1s-3.6,6.5-5.1,9.6c-3.3,6.2-6,12-8.4,17.1s-4.2,9.7-5.7,13.5c-3.1,7.6-4.5,12-4.5,12s1.5-4.4,4.6-11.9c1.6-3.8,3.6-8.3,6-13.4s5.3-10.8,8.6-17l5.2-9.5c1.9-3.2,3.8-6.6,5.9-10,1.1-1.7,2.2-3.4,3.2-5.1l3.4-5.3c2.2-3.5,4.7-7,7.1-10.6s5.1-7.1,7.8-10.7,5.4-7.2,8.3-10.7l4.4-5.4,4.5-5.2c3-3.5,6.1-6.9,9.3-10.3,1.5-1.7,3.2-3.4,4.8-5s3.3-3.3,4.9-4.9l10-9.5c3.4-2.9,6.8-6,10.2-8.8s6.9-5.7,10.4-8.2,6.9-5.2,10.3-7.5,6.8-4.7,10.2-6.8l9.8-6.1,9.5-5.2c3-1.7,6-3.1,8.9-4.5l8-3.8c5.2-2.2,9.6-4.2,13.4-5.6l4.6-1.7c-16.1,70.4-36,156.4-52.5,223.7-26.6,108.6-24.6,189-24.6,189s7.2-86.1,26.7-163.9c14.8-59.2,55.3-219.5,79.4-313.3l4.6,4.6c2.9,2.9,6.2,6.6,10,10.8,1.9,2.2,3.9,4.5,5.9,7s2.1,2.5,3.2,3.8l3.2,4c2.1,2.8,4.5,5.7,6.7,8.8l6.8,9.6,6.9,10.3c2.2,3.7,4.4,7.4,6.7,11.1s4.4,7.8,6.7,11.7l6.3,12.2,6.1,12.6c1.9,4.3,3.9,8.6,5.7,12.9l2.7,6.5,2.6,6.6c1.7,4.4,3.3,8.8,4.8,13.1s3,8.8,4.5,13.1,2.7,8.6,3.9,12.8c2.5,8.5,4.7,16.8,6.6,24.7.9,3.9,1.7,7.8,2.6,11.5s1.6,7.3,2.2,10.8c1.4,6.9,2.4,13.3,3.3,19s1.5,10.6,2,14.7c.9,8.2,1.2,13,1.2,13s-.2-4.8-1.1-13c-.4-4.1-1-9.1-1.8-14.7s-1.8-12.2-3.1-19.1c-.6-3.5-1.4-7.1-2.1-10.9s-1.6-7.6-2.6-11.5c-1.7-7.9-3.9-16.2-6.3-24.7-1.2-4.3-2.5-8.6-3.8-13s-2.7-8.7-4.3-13.1-3-8.8-4.7-13.2l-2.6-6.6-2.6-6.6c-1.7-4.4-3.7-8.6-5.6-13s-4-8.5-5.9-12.7-4.2-8.3-6.3-12.3-4.4-8-6.6-11.8L546,637.8c-2.3-3.5-4.5-7-6.7-10.5s-4.6-6.5-6.8-9.7-4.5-6-6.7-8.9l-3.1-4.1-3.2-3.8-5.9-7.1c-3.8-4.3-7.2-8.1-10-11.1l-5.8-5.9c7.2-27.9,12.8-49.6,15.7-60.3,4-14.7,14-48,25.6-86.4l10.1,5.9,8.1,5.3,4.5,3,2.5,1.6,2.4,1.8,10.4,7.7c1.8,1.3,3.6,2.8,5.5,4.3l5.7,4.7c1.9,1.6,3.9,3.1,5.8,4.9l5.9,5.3,6.2,5.5c1.9,2,4,4,6,6l6.2,6.1c2.1,2.1,4.1,4.3,6.2,6.5l6.2,6.7c2.1,2.3,4.1,4.7,6.1,7l6.2,7.2,6,7.5c2,2.6,4.1,5,6.1,7.6l5.9,7.9c7.9,10.6,15.4,21.7,22.7,32.9,3.6,5.7,7.1,11.4,10.6,17.1,1.6,2.9,3.3,5.7,5,8.6l2.5,4.3,2.4,4.3,4.8,8.6,4.5,8.7c3.1,5.7,5.9,11.4,8.7,17s5.4,11.3,8,16.7,5,10.9,7.2,16.2,4.6,10.5,6.6,15.5,4,9.9,5.8,14.5,3.5,9.3,5.2,13.5,3,8.4,4.3,12.3c2.8,7.7,5,14.5,6.7,20.1,3.6,11.2,5.3,17.7,5.3,17.7s-1.6-6.5-5.1-17.8c-1.7-5.6-3.8-12.4-6.5-20.1-1.2-3.9-2.7-8-4.2-12.4s-3.2-8.8-5-13.5-3.6-9.6-5.7-14.7-4.1-10.2-6.4-15.5-4.6-10.7-7.1-16.3-5-11.1-7.8-16.8-5.5-11.4-8.5-17.2c-1.5-2.9-2.9-5.8-4.5-8.7s-3.1-5.8-4.7-8.7l-2.3-4.4-2.5-4.3-4.9-8.7c-3.4-5.8-6.9-11.5-10.5-17.2-7.2-11.4-14.6-22.6-22.4-33.3l-5.8-8c-2-2.6-4.1-5.1-6-7.7l-6-7.6-6.2-7.3c-2-2.4-4-4.8-6.1-7.1s-4.1-4.6-6.2-6.8-4-4.5-6.1-6.7l-6.2-6.2-6-6.1-6.1-5.6-5.9-5.5c-2-1.8-4-3.4-5.9-5l-5.7-4.8c-1.9-1.5-3.7-3.1-5.5-4.4l-10.5-7.9-2.4-1.9-2.5-1.6-4.6-3.1-8.1-5.5-11.1-6.6c10.1-33.4,21.4-70.2,31.1-101.8l9.7,7.5c10,7.3,24.7,17.1,42.8,27.9s39.5,22.8,62.5,35.5S734,421,758.2,435.1c12.1,7.1,24.1,14.3,35.9,21.5s23.2,14.5,34,22c21.6,14.8,40.5,30.6,55,45.8a220.6,220.6,0,0,1,18.4,21.9A150.8,150.8,0,0,1,913.2,565a90.1,90.1,0,0,1,5.5,13.1,30.4,30.4,0,0,1,1.2,4.9,30.4,30.4,0,0,0-1.2-4.9,85,85,0,0,0-5.3-13.2A145.6,145.6,0,0,0,902,546a245.9,245.9,0,0,0-18.2-22.3c-14.4-15.4-33.1-31.5-54.6-46.8-10.7-7.6-22.2-15-33.8-22.4s-23.6-14.8-35.6-22C735.7,418,711.4,404,688.6,391s-44.1-25.4-61.9-36.4-32.3-20.8-42-28.1c-4.8-3.7-8.5-6.7-10.9-8.8l-.4-.3c6.6-21.4,12.3-40,16.4-53.1Z" fill="#e1e0de"/>
  </g>
</svg>
