<svg xmlns="http://www.w3.org/2000/svg" viewBox="0 0 32 32">
  <defs>
    <style>
      .b7b212d1-f0cd-40d8-8932-e8de3648247d {
        isolation: isolate;
      }

      .be928d90-54a6-4607-a1b7-e8071e8591b8 {
        fill: #1129c2;
      }

      .b0a4c521-bca7-4c04-a870-72fe6d72b6fe {
        mix-blend-mode: soft-light;
      }

      .acd263de-12bf-4cf1-8c84-8c9172df89a9 {
        fill: #fff;
      }
    </style>
  </defs>
  <g class="b7b212d1-f0cd-40d8-8932-e8de3648247d">
    <g id="ab0820fe-a588-4243-84e9-16e3c396adec" data-name="Layer 1">
      <g>
        <path class="be928d90-54a6-4607-a1b7-e8071e8591b8" d="M15.3,3.4V3.1c0-.3.3-.7.6-.7h1l2.7.4a3.8,3.8,0,0,1,2.1,1.4l.4.8a10.6,10.6,0,0,1,.2,5,18.9,18.9,0,0,1-.5,2.3c-.1.4-.1.8-.2,1.2a2.1,2.1,0,0,0,0,1.1c.2.4.5.6.9.4a2,2,0,0,0,.9-.9,6.3,6.3,0,0,0,.8-2.3,5.3,5.3,0,0,0-.1-1.3,22.3,22.3,0,0,1-.4-2.3.4.4,0,0,1,.4-.6h.6a4.5,4.5,0,0,1,2.2.8,10,10,0,0,1,2,1.6l1.4,1.5a5.9,5.9,0,0,1,1.5,5.7,5.3,5.3,0,0,1-.8,1.7,12,12,0,0,1-1.7,2.1l-.9.5-2,.6a5.7,5.7,0,0,1-2.6,0l-1.4-.4-.7-.2c-.5,0-.7.3-.4.8l1,1.7a4.4,4.4,0,0,1-.2,4.8,7,7,0,0,1-6.7,2.8,8.5,8.5,0,0,1-2.2-.9,12.3,12.3,0,0,1-3.3-2.3l-.6-.6L8.1,26.5l-.6-.7A.8.8,0,0,1,8,24.6H9.2a10.8,10.8,0,0,0,3.1-.7,3.1,3.1,0,0,0,1.5-1l.3-.7a.6.6,0,0,0-.5-.8,1.4,1.4,0,0,0-.9.1l-2.7.7-1.8.5a7.7,7.7,0,0,1-3,.3,2,2,0,0,1-1.8-1.1c-.1-.2-.1-.4-.2-.6A19.5,19.5,0,0,1,2.4,19a2.4,2.4,0,0,1-.2-.8,1.7,1.7,0,0,1-.1-.7.9.9,0,0,1,1.1-.8l1.1.5a9.7,9.7,0,0,0,4,1.2h1.8l.8-.3a.8.8,0,0,0,.2-1.3l-.7-.4A4.1,4.1,0,0,0,8.8,16H2.5A2.1,2.1,0,0,1,.5,14a8.8,8.8,0,0,1,0-2.3L.8,9.4c.1-.3.1-.7.2-1A4.6,4.6,0,0,0,.5,6.1a1.6,1.6,0,0,1-.4-.7.3.3,0,0,1,0-.5c.1-.2.3-.1.5-.1h.5a1.9,1.9,0,0,0,1.8-.7l1-1a1.6,1.6,0,0,1,2.7.2,5.7,5.7,0,0,1,.8,1.3c.2.6.5,1.2.7,1.9A20.4,20.4,0,0,0,9,8.8l.6.8a1.8,1.8,0,0,0,2,.6.7.7,0,0,0,.6-.7,1.1,1.1,0,0,0,0-.8,3.6,3.6,0,0,0-.4-.9c-.7-1.4-1.5-2.7-2.3-4a13.2,13.2,0,0,1-1.2-2A.9.9,0,0,1,8.9.6a7.1,7.1,0,0,1,2-.2h.9a5.1,5.1,0,0,1,2,.6,3,3,0,0,1,.8.8A3.7,3.7,0,0,0,15.1,3c0,.2.1.3.1.4Zm.5,1.3h0c.1.2.1.4.2.6a7.3,7.3,0,0,1,.7,2.9c0,.4.1.9.1,1.3l.3,2.8a2.2,2.2,0,0,0,.3,1c.2.3.4.3.7,0l.2-.3a2.9,2.9,0,0,0,.2-.9,11.5,11.5,0,0,0-.2-3.7,4.6,4.6,0,0,0-.8-1.9Z"/>
        <g class="b0a4c521-bca7-4c04-a870-72fe6d72b6fe">
          <path class="acd263de-12bf-4cf1-8c84-8c9172df89a9" d="M21.6,20.9h-.3c0-.1,0-.1-.1-.1h0a.1.1,0,0,1-.1-.1h-.3a.1.1,0,0,1-.1-.1h-1a.1.1,0,0,0-.1-.1h0a.1.1,0,0,1-.1-.1h-.6c0-.1,0-.1-.1-.1h-.2c0-.1,0-.1-.1-.1H16.2a.1.1,0,0,1-.1-.1H14.6a.1.1,0,0,1-.1-.1H9.2c-.1,0-.1,0-.1-.1H7.8a.1.1,0,0,0-.1-.1H4.4c0-.1,0-.1-.1-.1H3c-.1,0-.1,0-.1-.1H8.7a.1.1,0,0,1,.1.1h.6a.1.1,0,0,1,.1.1h1.4c0,.1,0,.1.1.1h5.5a.1.1,0,0,1,.1.1h.3c0,.1,0,.1.1.1h0c.1,0,.1,0,.1.1h.6a.1.1,0,0,0,.1.1h2.5a.1.1,0,0,1,.1.1H21a.1.1,0,0,0,.1.1h.1a.1.1,0,0,0,.1.1h.3Z"/>
          <path class="acd263de-12bf-4cf1-8c84-8c9172df89a9" d="M13.7,14.9H14s-.1,0,0-.1h0c-.1-.1,0-.1,0-.1h0c-.1,0-.1-.1,0-.1h0c-.1,0,0,0,0-.1H13a.1.1,0,0,0-.1-.1h.9s-.1,0,0,.1h0a.1.1,0,0,1-.1.1h0c0,.1-.1.1,0,.1h0Z"/>
          <path class="acd263de-12bf-4cf1-8c84-8c9172df89a9" d="M18.4,17.8h.2a.1.1,0,0,0,.1-.1h1.2s-.1-.1,0-.1h-.2c0-.1,0-.1.1-.1h-.2c.1-.1,0-.1,0-.1h-.3c.1,0,0-.1,0-.1h-.4c0,.1-.1.1,0,.1h.2s-.1,0,0,.1h.5c.1,0,0,0,0,.1h0c-.1.1,0,.1,0,.1h-.3c-.1,0,0,.1-.1.1h-.3c0,.1,0,.1-.1.1h-.3a.1.1,0,0,1-.1.1h0Z"/>
          <path class="acd263de-12bf-4cf1-8c84-8c9172df89a9" d="M27.2,11h-.1c.1,0,0,.1,0,.1h0c.1,0,.1,0,0,.1H20.4a.1.1,0,0,1-.1.1h6.8c.1,0,0,0,0-.1h.1Z"/>
          <path class="acd263de-12bf-4cf1-8c84-8c9172df89a9" d="M4.5,20.6H6.2a.1.1,0,0,0,.1-.1H7.9c0-.1.1,0,.1,0H8a.1.1,0,0,1,.1.1h5.7c.1,0,.1,0,.1-.1h.6a.1.1,0,0,0,.1-.1H4.5Z"/>
          <path class="acd263de-12bf-4cf1-8c84-8c9172df89a9" d="M11.7,26.8h2.8a.1.1,0,0,0,.1-.1h1.7c0-.1,0-.1.1-.1h1.3a.1.1,0,0,1,.1-.1H19c0-.1,0-.1.1-.1h-.3a.1.1,0,0,0-.1.1h0s-.1,0,0,.1h-.6c-.1,0,0,.1,0,.1h-.4a.1.1,0,0,1,.1.1h-.2c-.1,0,0,0,0,.1h-.8a.1.1,0,0,1-.1.1H15.1a.1.1,0,0,1-.1.1H14c0,.1-.1,0-.1.1H11.7Z"/>
          <path class="acd263de-12bf-4cf1-8c84-8c9172df89a9" d="M5.5,5.2Z"/>
          <path class="acd263de-12bf-4cf1-8c84-8c9172df89a9" d="M2.3,11.4Z"/>
        </g>
      </g>
    </g>
  </g>
</svg>
